<?xml version="1.0" encoding="utf-8"?>
<!-- Uploaded to SVGRepo https://www.svgrepo.com -->
<svg version="1.1" id="Layer_1" xmlns="http://www.w3.org/2000/svg" xmlns:xlink="http://www.w3.org/1999/xlink" x="0px" y="0px"
	 width="256px" height="205px" viewBox="0 0 256 205" enable-background="new 0 0 256 205" xml:space="preserve">
<path d="M51.804,30.114c0-15.485,12.388-27.972,27.972-27.972c15.485,0,27.972,12.487,27.972,27.972
	c-0.1,15.584-12.587,27.972-27.972,27.972C64.292,58.086,51.804,45.599,51.804,30.114z M206.097,150.086h-50.754v-45.355
	c0-22.096-19.309-39.956-41.035-39.956H46.275C22.422,64.775,1.989,85.444,2,105.811v83.151C1.972,198.177,8.48,202.988,14.959,203
	c6.494,0.012,12.959-4.8,12.959-14.038V107.97h8.639v94.95h84.231v-94.95h8.639l0.088,54.393
	c-0.058,9.426,5.769,13.44,11.791,13.639h64.793C223.767,176.003,223.767,150.086,206.097,150.086z M225.747,58.855
	c-1.544-1.09-3.588-0.681-4.678,0.772l-12.445,17.169l-5.587-6.041c-1.317-1.317-3.361-1.363-4.724-0.136
	c-1.317,1.317-1.363,3.361-0.136,4.724l11.037,11.991l17.259-23.845C227.564,62.034,227.201,59.899,225.747,58.855z M245.096,72.799
	l7.676-7.494c2.271-2.18,1.226-5.995-1.771-6.722l-10.446-2.68l2.952-10.356c0.818-2.952-1.953-5.768-4.951-4.951L228.2,43.548
	l-2.68-10.446c-0.727-2.952-4.587-4.042-6.722-1.771l-7.494,7.721l-7.494-7.721c-2.089-2.226-5.995-1.226-6.722,1.771l-2.68,10.446
	l-10.356-2.952c-2.952-0.818-5.768,1.953-4.951,4.951l2.952,10.356l-10.446,2.68c-2.998,0.727-4.042,4.542-1.771,6.722l7.676,7.494
	l-7.63,7.494c-2.271,2.18-1.226,5.995,1.771,6.722l10.446,2.68l-2.952,10.356c-0.818,2.952,1.953,5.768,4.951,4.951l10.174-2.907
	l-14.534,28.932l12.127-3.452l3.361,11.219l16.078-32.066l16.078,32.066l3.361-11.219l12.127,3.452l-14.534-28.932l10.174,2.907
	c2.952,0.818,5.768-1.953,4.951-4.951l-2.952-10.356l10.446-2.68c2.998-0.727,4.042-4.542,1.771-6.722L245.096,72.799z
	 M212.212,97.961c-13.898,0-25.117-11.219-25.117-25.117s11.219-25.162,25.117-25.162c13.808,0,25.117,11.219,25.117,25.117
	S226.111,97.961,212.212,97.961z"/>
</svg>
