<?xml version="1.0" encoding="utf-8"?>
<!-- Uploaded to SVGRepo https://www.svgrepo.com -->
<svg version="1.2" baseProfile="tiny" id="Layer_1" xmlns="http://www.w3.org/2000/svg" xmlns:xlink="http://www.w3.org/1999/xlink"
	 x="0px" y="0px" viewBox="0 0 256 256" xml:space="preserve">
<path id="XMLID_2_" d="M224,9h-26V2h-54v7h-26v131h44v-28h18v28h44V9z M153,97h-19V80h19V97z M153,71h-19V52h19V71z M153,44h-19V27
	h19V44z M180,97h-18V80h18V97z M180,71h-18V52h8.3h0.1h9.5V71z M180,44h-9.5h-0.1H162V27h8.3h0.1h9.5V44z M208,97h-18V80h18V97z
	 M208,71h-17.8H190V52h18V71z M208,44h-18V27h18V44z M254.6,156.3c-3.3-9-15.4-14-24.3-10.7l-64,23.7c0.5,4.4,0.4,11.8-1.5,15.8
	c-5.3,11.6-20.9,16.8-32.4,11.5l-42.7-19.2l2.9-7.3l42.7,19.2c8.7,3.6,19.2-0.3,22.6-9c1.3-2.7,1.8-5.8,1.4-8.4
	c0.1-2.9-1-5.9-2.5-8.2c-2.1-2.6-4.6-4.6-7.9-6.2l-77.6-34.4c-6.8-3.9-15-5.4-23.2-3.5c-1.8,0.4-3.5,0.9-5.1,1.7l-0.2,0.1l-0.2,0.2
	l-14,11.9L0,157.7v74.6l36.5-34.7l77.2,23.3c6.5,2.1,13.9,2.2,19.7,0l109.8-40.7C255.6,175.8,258,165.3,254.6,156.3z"/>
</svg>
