<?xml version="1.0" standalone="no"?>
<!DOCTYPE svg PUBLIC "-//W3C//DTD SVG 1.1//EN" "http://www.w3.org/Graphics/SVG/1.1/DTD/svg11.dtd" >
<svg xmlns="http://www.w3.org/2000/svg" xmlns:xlink="http://www.w3.org/1999/xlink" version="1.1">
<metadata>
Created by FontForge 20200427 at Wed Dec 18 13:39:21 2019
 By www
Copyright (c) 2017, Kyle Hathcoat with Reserved Font Name "Adumu"
</metadata>
<defs>
<font id="Adumu" horiz-adv-x="604" >
  <font-face 
    font-family="Adumu"
    font-weight="400"
    font-stretch="normal"
    units-per-em="1000"
    panose-1="2 0 5 3 0 0 0 0 0 0"
    ascent="800"
    descent="-200"
    x-height="585"
    cap-height="800"
    bbox="-71 -291 1054 1237"
    underline-thickness="50"
    underline-position="-150"
    unicode-range="U+000D-FB05"
  />
<missing-glyph horiz-adv-x="364" 
d="M33 0v666h265v-666h-265zM66 33h199v600h-199v-600z" />
    <glyph glyph-name=".notdef" horiz-adv-x="364" 
d="M33 0v666h265v-666h-265zM66 33h199v600h-199v-600z" />
    <glyph glyph-name=".null" horiz-adv-x="0" 
 />
    <glyph glyph-name="uni000D" unicode="&#xd;" horiz-adv-x="1000" 
 />
    <glyph glyph-name="space" unicode=" " horiz-adv-x="300" 
 />
    <glyph glyph-name="exclam" unicode="!" horiz-adv-x="260" 
d="M216 240l-184 -11l-9 558l217 13zM25 196h189l25 -28l-22 -136l-37 -30l-109 -3l-51 34z" />
    <glyph glyph-name="quotedbl" unicode="&#x22;" horiz-adv-x="430" 
d="M33 512l-13 281l178 7l-7 -283zM232 793l178 7l-7 -283l-158 -5z" />
    <glyph glyph-name="numbersign" unicode="#" horiz-adv-x="866" 
d="M830 430l-136 6l-17 -126l132 -3l-37 -201l-130 5l-17 -110l-196 34l12 85l-115 5l-19 -124l-193 34l13 99l-107 4l15 188l119 -3l14 134l-116 5l33 188l110 -3l15 153l216 -35l-15 -123l101 -3l14 138l215 -33l-13 -110l118 -3zM470 315l14 129l-106 4l-17 -130z" />
    <glyph glyph-name="dollar" unicode="$" horiz-adv-x="606" 
d="M537 463l49 -105l-7 -297l-63 -56l-127 -1l-1 -91l-185 -15l1 104l-146 -1l-38 79l19 194l178 -1l13 -89l148 3l5 126l-309 35l-45 51l5 335l39 47l134 8l1 99l184 14l-1 -102l49 2l129 -36l9 -192l-37 -32l-140 -7l-25 81l-133 -11l-11 -115z" />
    <glyph glyph-name="percent" unicode="%" horiz-adv-x="757" 
d="M686 693l1 -48l-470 -645l-148 78l-9 46l465 677zM288 490l-226 -3l-40 23l-2 250l23 40l241 -5l30 -38l-2 -230zM198 691l-61 5l1 -106l58 -5zM707 307l30 -38l-2 -230l-24 -37l-226 -3l-40 23l-2 250l23 40zM619 97l2 106l-61 5l1 -106z" />
    <glyph glyph-name="ampersand" unicode="&#x26;" horiz-adv-x="642" 
d="M617 434l5 -152l-42 -2l-1 -206l-36 -71l-483 -3l-35 64l-3 263l54 94l-54 71l-2 255l31 50l479 3l60 -53l-14 -211h-187l-14 101l-146 -12l2 -112l54 -87l-52 -89l3 -167l136 -9l7 111l-57 -2l3 155z" />
    <glyph glyph-name="quotesingle" unicode="'" horiz-adv-x="218" 
d="M20 793l178 7l-7 -283l-158 -5z" />
    <glyph glyph-name="parenleft" unicode="(" horiz-adv-x="368" 
d="M229 678l6 -569l113 -21l-3 -188l-265 -3l-55 52l-5 868l38 82l290 2l-3 -209z" />
    <glyph glyph-name="parenright" unicode=")" horiz-adv-x="368" 
d="M139 678l-116 14l-3 209l290 -2l38 -82l-5 -868l-55 -52l-265 3l-3 188l113 21z" />
    <glyph glyph-name="asterisk" unicode="*" horiz-adv-x="398" 
d="M378 632l-72 -34l43 -63l-100 -75l-46 67l-59 -64l-98 71l52 60l-78 24l27 123l87 -27l-1 81l126 6v-87l84 40z" />
    <glyph glyph-name="plus" unicode="+" horiz-adv-x="492" 
d="M324 424l128 -3v-152l-131 1l-2 -126h-152l1 128l-128 1l7 156l123 -3l1 129l155 -7z" />
    <glyph glyph-name="comma" unicode="," horiz-adv-x="260" 
d="M189 196l51 -33l-5 -151l-91 -113l-83 55l34 46h-49l-26 27l23 136l37 31z" />
    <glyph glyph-name="hyphen" unicode="-" horiz-adv-x="492" 
d="M47 429l405 -8v-152l-412 4z" />
    <glyph glyph-name="period" unicode="." horiz-adv-x="260" 
d="M189 198l51 -34l-6 -163h-188l-26 28l23 136l37 30z" />
    <glyph glyph-name="slash" unicode="/" horiz-adv-x="668" 
d="M647 692l1 -48l-470 -645l-148 78l-10 46l466 677z" />
    <glyph glyph-name="zero" unicode="0" 
d="M537 800l47 -51l-7 -676l-37 -71l-449 -3l-66 39l-5 709l32 50zM230 632l6 -462l135 -9l2 459z" />
    <glyph glyph-name="one" unicode="1" horiz-adv-x="385" 
d="M179 793l186 7l-16 -788l-196 -12l12 553l-62 -40l-83 145z" />
    <glyph glyph-name="two" unicode="2" horiz-adv-x="610" 
d="M582 189l8 -189l-533 3l-34 41l-3 162l357 331l-3 69l-138 12l-17 -87l-158 7l-38 31l9 195l129 37l388 -18l35 -86l-3 -237l-303 -274z" />
    <glyph glyph-name="three" unicode="3" horiz-adv-x="610" 
d="M590 748l-2 -260l-52 -79l52 -92l-3 -253l-35 -64l-483 3l-36 72l-1 171l33 39h164l10 -123l138 9l6 148l-164 14l4 146l152 3l7 138l-145 12l-11 -106h-190l-14 222l60 53l478 -3z" />
    <glyph glyph-name="four" unicode="4" horiz-adv-x="655" 
d="M569 498l66 -1l-2 -203l-66 3l-2 -281l-192 -16l-5 304l-311 11l-37 45l6 430l204 10l-2 -299l137 -1l-4 287l210 14z" />
    <glyph glyph-name="five" unicode="5" horiz-adv-x="600" 
d="M533 468l47 -108l-2 -297l-61 -56l-468 -7l-29 80l16 176h176l15 -70l148 3l3 126l-310 35l-46 51l4 394l537 8l-4 -185l-330 -12l-1 -111z" />
    <glyph glyph-name="six" unicode="6" horiz-adv-x="600" 
d="M530 464l50 -105l-2 -297l-61 -56l-459 -6l-38 80l2 655l38 48l367 18l129 -33l13 -193l-37 -32l-140 -7l-27 82l-132 -12l-9 -115zM225 185l150 3l3 126l-152 19z" />
    <glyph glyph-name="seven" unicode="7" horiz-adv-x="590" 
d="M552 800l18 -143l-325 -660l-168 47l-12 49l246 522l-284 2l-7 178z" />
    <glyph glyph-name="eight" unicode="8" horiz-adv-x="614" 
d="M594 742l-2 -241l-52 -79l52 -90l-3 -261l-50 -72l-442 3l-67 74l-9 268l51 82l-51 70l-1 233l57 71l477 -3zM381 487l-11 139l-133 -2l6 -140zM378 176l-7 151l-129 -4l-4 -154z" />
    <glyph glyph-name="nine" unicode="9" horiz-adv-x="600" 
d="M542 800l38 -78l-2 -667l-38 -48l-398 -7l-98 35l-12 192l36 32l150 7l18 -82l132 2l8 125l-306 27l-50 105l2 297l62 56zM374 617l-150 -3l-2 -126l152 -18v147z" />
    <glyph glyph-name="colon" unicode=":" horiz-adv-x="260" 
d="M80 194l109 2l51 -33l-6 -163h-188l-26 27l23 136zM206 390h-160l-26 27l23 136l37 31l109 2l51 -34l-5 -137z" />
    <glyph glyph-name="semicolon" unicode=";" horiz-adv-x="260" 
d="M206 390h-160l-26 27l23 136l37 31l109 2l51 -34l-5 -137zM80 194l109 2l51 -33l-5 -151l-91 -113l-83 55l34 46h-49l-26 27l23 136z" />
    <glyph glyph-name="less" unicode="&#x3c;" horiz-adv-x="400" 
d="M265 344l95 -101l-35 -179l-285 272l265 283l52 -170z" />
    <glyph glyph-name="equal" unicode="=" horiz-adv-x="494" 
d="M40 178l7 156l404 -7v-153zM49 525l405 -7v-153l-411 4z" />
    <glyph glyph-name="greater" unicode="&#x3e;" horiz-adv-x="400" 
d="M135 344l-92 105l52 170l265 -283l-285 -272l-35 179z" />
    <glyph glyph-name="question" unicode="?" horiz-adv-x="590" 
d="M191 195h189l25 -27l-22 -136l-37 -31l-109 -2l-51 34zM565 733l5 -335l-45 -50l-137 -35l-4 -76h-185l-12 119l48 104l132 27l-12 117l-132 11l-25 -81l-140 7l-38 31l9 189l103 38l393 -19z" />
    <glyph glyph-name="at" unicode="@" horiz-adv-x="648" 
d="M460 146l8 57h155l-2 -128l-27 -72l-494 -3l-75 37l-5 706l42 49l519 8l47 -51l-10 -464l-49 -46l-302 -2l-25 53l23 219l38 33l164 1l2 87l-287 14l7 -487zM368 352h117v65l-110 9z" />
    <glyph glyph-name="A" unicode="A" horiz-adv-x="622" 
d="M394 -1l-5 246l-156 -4l-12 -237l-201 -4l31 734l39 47l436 19l61 -90l15 -707zM241 410l145 -10l-4 199l-132 -11z" />
    <glyph glyph-name="B" unicode="B" horiz-adv-x="602" 
d="M538 396l44 -55l-6 -273l-71 -57l-485 -11l7 800l463 -25l64 -74l12 -269zM368 472l-6 150l-137 21l2 -163zM377 324l-147 12l-1 -174l143 24z" />
    <glyph glyph-name="C" unicode="C" horiz-adv-x="610" 
d="M389 247l186 -13l5 -160l-37 -72l-451 -3l-67 36l-5 699l30 66l480 -6l60 -53l-14 -216h-189l-17 102l-140 6l8 -463l134 -10z" />
    <glyph glyph-name="D" unicode="D" horiz-adv-x="612" 
d="M514 778l78 -101l-10 -574l-77 -92l-485 -11l6 800zM237 171l142 26l6 399l-146 32z" />
    <glyph glyph-name="E" unicode="E" horiz-adv-x="516" 
d="M493 180l3 -179h-476v800l467 -15l-2 -183l-264 3v-111l169 -7v-165l-167 7l-1 -135z" />
    <glyph glyph-name="F" unicode="F" horiz-adv-x="508" 
d="M485 605l-256 4v-114l161 -7l1 -168l-163 6l-2 -316l-206 -10v801l468 -15z" />
    <glyph glyph-name="G" unicode="G" horiz-adv-x="605" 
d="M308 421l268 -2l4 -341l-37 -71l-451 -6l-67 39l-5 706l32 47l472 9l61 -50l-14 -225h-187l-14 106l-140 -7l6 -454l136 -9l4 95l-68 7v156z" />
    <glyph glyph-name="H" unicode="H" horiz-adv-x="622" 
d="M385 800l217 -6l-12 -794l-212 6l3 310l-141 5l-5 -312l-215 -10l6 800h223l-5 -302l138 -4z" />
    <glyph glyph-name="I" unicode="I" horiz-adv-x="260" 
d="M26 793l214 7l-15 -783l-205 -17z" />
    <glyph glyph-name="J" unicode="J" horiz-adv-x="602" 
d="M560 803l22 -42v-5l-5 -700l-64 -54l-441 6l-52 76l10 181l184 3l14 -104l139 10l11 441l-159 -5l-36 45v142z" />
    <glyph glyph-name="K" unicode="K" horiz-adv-x="628" 
d="M577 517l-87 -53l108 -370l-16 -49l-182 -49l-93 356l-68 -42l-10 -291l-209 -20l6 802h231l-9 -248l130 83l11 164l219 -6z" />
    <glyph glyph-name="L" unicode="L" horiz-adv-x="540" 
d="M514 190l6 -190h-500l7 803l214 -13l-11 -597z" />
    <glyph glyph-name="M" unicode="M" horiz-adv-x="710" 
d="M684 799l6 -800l-216 5l-11 450l-104 -163l-109 162l-12 -446l-218 -8l8 802l214 -3l113 -180l105 181h224z" />
    <glyph glyph-name="N" unicode="N" horiz-adv-x="642" 
d="M402 790l220 10l-14 -794l-196 -6l-176 351l-5 -331l-211 -20l5 800h216l159 -337z" />
    <glyph glyph-name="O" unicode="O" 
d="M537 800l47 -51l-7 -676l-37 -71l-449 -3l-66 39l-5 709l32 50zM230 632l6 -462l135 -9l2 459z" />
    <glyph glyph-name="P" unicode="P" 
d="M583 740l1 -480l-42 -49l-310 -9l-3 -185l-209 -17v800l523 -21zM374 612l-132 13l-5 -244l136 10z" />
    <glyph glyph-name="Q" unicode="Q" horiz-adv-x="603" 
d="M583 749l-7 -677l-37 -48l35 -52l-158 -73l-109 104l-216 -3l-66 38l-5 707l31 50l485 5zM372 618l-143 -10l6 -438l136 -9z" />
    <glyph glyph-name="R" unicode="R" 
d="M545 222l-50 -3l70 -145l-17 -34l-159 -41l-112 206l-45 -3l-3 -184l-209 -16v800l524 -24l39 -39l1 -449zM374 615l-132 12l-5 -246l136 10z" />
    <glyph glyph-name="S" unicode="S" horiz-adv-x="606" 
d="M537 463l49 -105l-7 -297l-63 -56l-458 -4l-38 79l19 194l178 -1l13 -89l148 3l5 126l-309 35l-45 51l5 335l39 47l367 19l129 -37l9 -189l-37 -32l-140 -7l-25 81l-133 -11l-11 -115z" />
    <glyph glyph-name="T" unicode="T" horiz-adv-x="602" 
d="M20 802h562l-9 -195l-159 -7l-22 -579l-206 -20l5 600l-170 8z" />
    <glyph glyph-name="U" unicode="U" horiz-adv-x="608" 
d="M415 795l173 5l-10 -725l-37 -71l-443 -3l-66 38l-12 764h172l38 -35l12 -577l131 -9l6 575z" />
    <glyph glyph-name="V" unicode="V" horiz-adv-x="698" 
d="M461 806l217 -42l-159 -718l-46 -41l-240 -6l-41 40l-172 737l227 30l109 -571v0z" />
    <glyph glyph-name="W" unicode="W" horiz-adv-x="728" 
d="M496 796l212 5l-24 -754l-38 -47l-183 1l-99 180l-96 -181l-196 2l-35 49v6l-17 744l212 -5l26 -463l106 176l109 -170z" />
    <glyph glyph-name="X" unicode="X" horiz-adv-x="634" 
d="M441 402l173 -296l-5 -41l-173 -70l-118 200l-104 -200l-174 54l-20 40l164 310l-160 254l6 47l157 108l120 -190l105 190l177 -98l4 -51z" />
    <glyph glyph-name="Y" unicode="Y" 
d="M580 739l4 -68l-282 -678l-185 40l-7 44l96 286l-186 405l198 36l101 -192l76 193z" />
    <glyph glyph-name="Z" unicode="Z" horiz-adv-x="588" 
d="M285 203l279 -11l4 -192l-508 5l-39 28l-1 180l274 386l-265 2l-4 199l530 -9l13 -198z" />
    <glyph glyph-name="bracketleft" unicode="[" horiz-adv-x="366" 
d="M346 690l-108 -2l-6 -586l109 -7l-1 -197h-320l6 1003l320 -3v-208z" />
    <glyph glyph-name="backslash" unicode="\" horiz-adv-x="668" 
d="M21 692l161 108l466 -677l-10 -46l-148 -78l-470 645z" />
    <glyph glyph-name="bracketright" unicode="]" horiz-adv-x="366" 
d="M20 690l108 -2l6 -586l-109 -7l1 -197h320l-6 1003l-320 -3v-208z" />
    <glyph glyph-name="asciicircum" unicode="^" horiz-adv-x="488" 
d="M248 807l220 -255l-149 -32l-77 80l-81 -77l-141 46z" />
    <glyph glyph-name="underscore" unicode="_" horiz-adv-x="800" 
d="M23 1l757 -10v-187l-760 6z" />
    <glyph glyph-name="grave" unicode="`" horiz-adv-x="236" 
d="M113 1046l103 -158l-63 -50l-133 129z" />
    <glyph glyph-name="a" unicode="a" horiz-adv-x="612" 
d="M585 547l7 -546l-137 -1l-21 35l-23 -34l-316 3l-75 54l18 264l58 40l280 2l3 68l-142 10l-17 -40l-183 12l-10 75l51 91l441 6zM383 156l-1 92l-149 -2l6 -84z" />
    <glyph glyph-name="b" unicode="b" horiz-adv-x="616" 
d="M534 586l62 -78l-12 -428l-72 -78l-318 3l-25 29l-22 -33l-127 1l6 800l203 -11l6 -227zM383 177l-12 221l-133 -5l-2 -221z" />
    <glyph glyph-name="c" unicode="c" horiz-adv-x="606" 
d="M383 225l191 -9l5 -139l-40 -71l-448 -6l-66 39l-5 479l39 67l453 -9l74 -51l-10 -185h-193l-11 81l-138 6l4 -259l131 -10z" />
    <glyph glyph-name="d" unicode="d" horiz-adv-x="616" 
d="M590 802l6 -800l-127 -1l-22 33l-25 -29l-318 -3l-72 78l-12 428l62 78l299 -22l6 227zM380 172l-2 221l-133 5l-12 -221z" />
    <glyph glyph-name="e" unicode="e" horiz-adv-x="610" 
d="M390 179l183 -12l10 -71l-42 -92l-450 -4l-66 40l-5 481l62 65l433 -9l75 -51l-18 -275l-59 -40l-279 8l-3 -67l142 -10zM377 320l-6 102l-144 6l1 -94z" />
    <glyph glyph-name="f" unicode="f" horiz-adv-x="558" 
d="M477 800l61 -57l-3 -86l-19 -42l-158 3l-7 36l-93 -6l4 -66l165 -5l3 -138l-30 -24h-138l1 -407l-199 -9l-1 426l-42 1l-1 126l21 30l27 1l2 157l43 45z" />
    <glyph glyph-name="g" unicode="g" horiz-adv-x="608" 
d="M461 586l127 3l-4 -789l-64 -55l-442 9l-49 77l7 100l22 37l163 3l20 -66l137 11l-3 99l-284 -14l-57 56l-14 444l71 84l325 -2l22 -30zM226 405l5 -224l141 7l2 226z" />
    <glyph glyph-name="h" unicode="h" horiz-adv-x="616" 
d="M534 585l62 -78l-7 -506l-207 3l-8 392l-136 -9l6 -373l-221 -14l-3 800l209 -16l6 -216z" />
    <glyph glyph-name="i" unicode="i" horiz-adv-x="268" 
d="M20 0l5 584h216l-18 -574zM188 605l-109 -2l-50 33l5 163h189l25 -27l-22 -136z" />
    <glyph glyph-name="j" unicode="j" horiz-adv-x="594" 
d="M221 580l298 6l52 -70l-5 -719l-64 -54l-430 8l-52 77l10 140l194 3l17 -68l106 10l4 482l-95 7l-35 45v133zM514 606l-109 -2l-50 34l5 162h189l25 -27l-22 -136z" />
    <glyph glyph-name="k" unicode="k" horiz-adv-x="616" 
d="M564 342l-77 -47l98 -199l-16 -51l-179 -48l-87 186l-70 -43l-4 -123l-209 -17l3 791l235 10l-16 -418l123 78l12 124l219 -6z" />
    <glyph glyph-name="l" unicode="l" horiz-adv-x="300" 
d="M21 799h259l-17 -782l-209 -18l4 613l-38 18z" />
    <glyph glyph-name="m" unicode="m" horiz-adv-x="746" 
d="M681 575l45 -42l-5 -489l-39 -44l-157 4l-12 348l-45 9l-18 -324l-148 22l-14 295l-45 -3l-18 -351l-205 2l9 581l125 -1l16 -33l31 27h141l33 -53l47 51z" />
    <glyph glyph-name="n" unicode="n" 
d="M544 584l40 -39l-2 -519l-50 -27l-159 3l-1 402l-141 -4l3 -387l-211 -14l-3 573l128 3l18 -30l25 24z" />
    <glyph glyph-name="o" unicode="o" 
d="M532 579l52 -68l-5 -437l-39 -71l-448 -3l-67 35l-5 483l40 67zM372 421l-140 6l4 -268l133 -11z" />
    <glyph glyph-name="p" unicode="p" 
d="M583 543l1 -493l-42 -50l-307 4l-6 -241l-209 -20l5 830l128 3l17 -31l25 28l348 9zM374 396l-129 13l-5 -252l133 10z" />
    <glyph glyph-name="q" unicode="q" 
d="M579 573l5 -830l-209 20l-6 241l-307 -4l-42 50l1 493l40 39l348 -9l25 -28l17 31zM364 157l-5 252l-129 -13l1 -229z" />
    <glyph glyph-name="r" unicode="r" horiz-adv-x="576" 
d="M504 575l52 -68l-3 -180l-30 -49l-157 3l-14 119l-115 6v-406l-209 11l-8 570l125 -1l19 -33l24 27z" />
    <glyph glyph-name="s" unicode="s" horiz-adv-x="598" 
d="M534 343l44 -87l-8 -210l-57 -42l-451 -5l-42 46l14 164l179 -1l11 -51h152l4 75l-307 26l-47 38l5 239l41 36l419 13l73 -26l9 -140l-38 -28l-144 -5l-20 55l-137 -6l-10 -66z" />
    <glyph glyph-name="t" unicode="t" horiz-adv-x="564" 
d="M544 207v-120l-51 -81l-400 -6l-38 64l4 356l-38 9l-1 127l22 23l29 2l11 144l155 -3l24 -26l-1 -115l217 -5l25 -35l-2 -135l-237 3l-9 -247l95 -4l23 93l147 -9z" />
    <glyph glyph-name="u" unicode="u" 
d="M422 579l162 7l-3 -585h-133l-21 29l-19 -29l-317 2l-66 39l-5 544l162 -6l42 -53l19 -355l124 -16l17 375z" />
    <glyph glyph-name="v" unicode="v" horiz-adv-x="668" 
d="M445 594l203 -52l-154 -501l-45 -40h-224l-39 39l-166 517l207 37l112 -362z" />
    <glyph glyph-name="w" unicode="w" horiz-adv-x="716" 
d="M489 580l207 5l-26 -539l-38 -46l-160 2l-112 142l-109 -145l-179 2l-36 49l-16 535l207 -6l21 -303l109 138l108 -139z" />
    <glyph glyph-name="x" unicode="x" horiz-adv-x="596" 
d="M574 152l2 -47l-121 -113l-151 155l-140 -155l-135 109l-9 35l140 160l-131 134l4 50l128 115l134 -144l126 144l138 -109l6 -48l-126 -141z" />
    <glyph glyph-name="y" unicode="y" horiz-adv-x="600" 
d="M414 581l166 7l-7 -786l-64 -56l-436 9l-49 77l6 101l22 37l162 2l19 -66l140 11l-3 99l-276 -14l-57 56l-17 531l170 -2l35 -28l6 -377l139 8l7 352z" />
    <glyph glyph-name="z" unicode="z" horiz-adv-x="586" 
d="M565 148l1 -147l-515 5l-27 30l-4 158l252 200l-219 8l-28 21l1 163l535 -16l-1 -201l-248 -185l209 -1z" />
    <glyph glyph-name="braceleft" unicode="{" horiz-adv-x="432" 
d="M296 320l3 -211l113 -21l-3 -188l-265 -3l-56 52l-2 360l-66 90l66 85l-3 333l39 82l290 2l-3 -209l-116 -14l2 -203l-55 -80z" />
    <glyph glyph-name="bar" unicode="|" horiz-adv-x="342" 
d="M65 893l217 8l-23 -985l-199 -18z" />
    <glyph glyph-name="braceright" unicode="}" horiz-adv-x="432" 
d="M136 320l56 75l-55 80l2 203l-116 14l-3 209l290 -2l39 -82l-3 -333l66 -85l-66 -90l-2 -360l-56 -52l-265 3l-3 188l113 21z" />
    <glyph glyph-name="asciitilde" unicode="~" horiz-adv-x="646" 
d="M565 467l41 -19v-140l-175 -108l-213 109l-141 -75l-37 21l2 153l162 85l209 -109z" />
    <glyph glyph-name="exclamdown" unicode="&#xa1;" horiz-adv-x="260" 
d="M44 344l184 11l9 -557l-217 -14zM235 389h-189l-25 27l22 136l37 31l109 2l51 -33z" />
    <glyph glyph-name="cent" unicode="&#xa2;" horiz-adv-x="602" 
d="M389 308l181 -13l4 -155l-36 -71l-145 -2l-2 -152l-185 -15l1 165l-115 -2l-67 39l-5 566l30 69l159 -3l2 156l184 14l-1 -174l128 -2l60 -53l-11 -203h-184l-17 97l-146 6l6 -344l142 -10z" />
    <glyph glyph-name="sterling" unicode="&#xa3;" horiz-adv-x="587" 
d="M549 248l18 -47l-7 -141l-62 -56l-444 -3l-34 60l40 166l2 104h-35l4 155h34l5 248l39 47l307 19l126 -34l9 -192l-37 -32l-136 -7l-20 95l-83 -10l-4 -136l81 -1l2 -154l-87 1l-3 -100l-16 -63l121 3l12 73z" />
    <glyph glyph-name="currency" unicode="&#xa4;" horiz-adv-x="686" 
d="M552 491l-2 -180l115 -117l-120 -120l-109 111l-199 -2l-105 -104l-111 129l96 95l-1 209l-96 97l129 112l84 -86l219 -4l94 92l120 -120zM393 491l-117 9l2 -181l112 -8z" />
    <glyph glyph-name="yen" unicode="&#xa5;" 
d="M584 672l-69 -165l46 -1v-152l-109 1l-10 -25l119 -1v-153l-182 1l-77 -184l-185 40l-7 44l34 102l-86 1l9 156l129 -2l8 23l-146 1l9 155l71 -1l-118 256l198 36l101 -192l76 193l185 -66z" />
    <glyph glyph-name="brokenbar" unicode="&#xa6;" horiz-adv-x="334" 
d="M65 883l209 15l-13 -452l-198 -10zM60 -103l2 450h197l-12 -425z" />
    <glyph glyph-name="section" unicode="&#xa7;" horiz-adv-x="606" 
d="M537 547l49 -106l-7 -381l-62 -56l-459 -4l-38 80l20 139l183 -1l11 -39l144 3l1 47l-304 20l-46 51l5 433l39 48l368 18l128 -37l10 -149l-38 -32l-155 -7l-9 43l-133 -9l-3 -46zM231 361l151 -11l1 78l-149 7z" />
    <glyph glyph-name="dieresis" unicode="&#xa8;" horiz-adv-x="444" 
d="M73 1003l96 2l45 -30l-3 -119l-27 -23h-141l-23 25l19 117zM379 1005l45 -30l-4 -119l-26 -23h-137l-23 24l10 116l29 30z" />
    <glyph glyph-name="copyright" unicode="&#xa9;" horiz-adv-x="698" 
d="M372 425l-7 46l-34 2l3 -177l32 -2l7 44l96 -7l2 -78l-19 -37l-191 -2l-36 19l-2 290l16 36l205 -3l31 -27l-6 -104h-97zM631 802l47 -51l-7 -676l-37 -71l-543 -3l-66 39l-5 703l32 50zM169 634l6 -473l346 -10l1 488z" />
    <glyph glyph-name="ordfeminine" unicode="&#xaa;" horiz-adv-x="266" 
d="M255 783l1 -233l-68 1l-7 16l-12 -16l-122 3l-37 26l8 118l32 12l100 2v23l-35 2l-7 -17l-87 6l-10 29l27 46l182 2zM109 648l2 -29l41 -2v31h-43z" />
    <glyph glyph-name="guillemotleft" unicode="&#xab;" horiz-adv-x="692" 
d="M556 344l96 -101l-35 -179l-286 272l266 283l51 -170zM357 449l-92 -105l96 -101l-36 -179l-285 272l266 283z" />
    <glyph glyph-name="logicalnot" unicode="&#xac;" horiz-adv-x="492" 
d="M47 433l405 -7v-222l-133 2l-13 69l-266 3z" />
    <glyph glyph-name="registered" unicode="&#xae;" horiz-adv-x="698" 
d="M631 802l47 -51l-7 -676l-37 -71l-543 -3l-66 39l-5 703l32 50zM521 137l1 516l-353 -6l6 -500zM331 221l-108 -8v345l229 -11l23 -22v-188l-20 -34l-9 -1l22 -44l-12 -25l-76 -23l-46 84h-2zM336 463l-2 -74l33 3v68z" />
    <glyph glyph-name="macron" unicode="&#xaf;" horiz-adv-x="389" 
d="M21 972l348 -1l-2 -130l-347 -1z" />
    <glyph glyph-name="degree" unicode="&#xb0;" horiz-adv-x="226" 
d="M194 799l22 -29l-1 -151l-18 -29l-156 -2l-30 18l-1 165l18 31zM128 719l-30 2l1 -54l28 -2z" />
    <glyph glyph-name="plusminus" unicode="&#xb1;" horiz-adv-x="492" 
d="M40 61l7 156l405 -8v-152zM324 538l128 -2v-153l-131 1l-2 -126h-152l1 128l-128 1l7 156l123 -2l1 128l155 -7z" />
    <glyph glyph-name="uni00B2" unicode="&#xb2;" horiz-adv-x="318" 
d="M305 584l3 -94l-275 -2l-21 22l-2 80l174 109l-2 6l-49 3l-11 -29l-87 3l-24 17l5 87l82 14l179 -6l24 -24l2 -117l-128 -70z" />
    <glyph glyph-name="uni00B3" unicode="&#xb3;" horiz-adv-x="312" 
d="M302 772l-1 -103l-15 -22l15 -23l-1 -106l-17 -32l-251 1l-18 35v48l18 22h98l5 -23l47 2l1 37l-59 5l1 62l56 1l1 37l-48 3l-5 -25h-113l-6 82l29 27l246 -1z" />
    <glyph glyph-name="acute" unicode="&#xb4;" horiz-adv-x="236" 
d="M123 1046l-103 -158l63 -50l133 129z" />
    <glyph glyph-name="mu" unicode="&#xb5;" 
d="M422 581l162 6l-5 -544l-66 -39l-284 -3l-2 -255l-203 9l-4 831l162 -7l38 -48l17 -374l124 16l19 355z" />
    <glyph glyph-name="paragraph" unicode="&#xb6;" horiz-adv-x="816" 
d="M61 780l735 19l-1 -800l-206 10l-13 605h-52l-1 -615l-208 17l-4 184l-249 12l-42 50l1 479zM306 381l-4 236l-72 -9l1 -217z" />
    <glyph glyph-name="periodcentered" unicode="&#xb7;" horiz-adv-x="300" 
d="M209 497l51 -34l-5 -137l-29 -26h-160l-26 28l23 136l37 30z" />
    <glyph glyph-name="cedilla" unicode="&#xb8;" horiz-adv-x="234" 
d="M169 -26l45 -31l-3 -130l-80 -100l-76 51l28 37h-40l-23 26l19 117l34 28z" />
    <glyph glyph-name="uni00B9" unicode="&#xb9;" horiz-adv-x="202" 
d="M81 795l111 5l-7 -301l-114 -10l4 178l-27 -18l-38 98z" />
    <glyph glyph-name="ordmasculine" unicode="&#xba;" horiz-adv-x="266" 
d="M254 783l2 -200l-31 -32l-189 3l-26 28l3 186l27 33l180 2zM117 638l37 -1l-1 84l-35 2z" />
    <glyph glyph-name="guillemotright" unicode="&#xbb;" horiz-adv-x="692" 
d="M136 344l-92 105l51 170l266 -283l-286 -272l-35 179zM335 449l51 170l266 -283l-285 -272l-36 179l96 101z" />
    <glyph glyph-name="onequarter" unicode="&#xbc;" horiz-adv-x="740" 
d="M646 694l1 -48l-469 -644l-149 77l-9 47l466 676zM134 669l-27 -18l-38 98l71 48l112 5l-8 -301l-114 -10zM720 210l-1 -100h-21v-102l-113 -7l-2 112l-145 3l-20 24v168l116 4v-104h47l-2 98l119 6v-102h22z" />
    <glyph glyph-name="onehalf" unicode="&#xbd;" horiz-adv-x="726" 
d="M646 692l1 -48l-469 -645l-148 78l-10 47l466 676zM134 667l-27 -18l-38 98l71 48l112 5l-8 -301l-114 -10zM703 95l3 -94l-275 -2l-21 21l-2 80l174 109l-2 7l-49 3l-11 -30l-87 3l-24 18l5 86l81 15l180 -7l24 -24l2 -116l-128 -70z" />
    <glyph glyph-name="threequarters" unicode="&#xbe;" horiz-adv-x="786" 
d="M692 694l1 -48l-469 -644l-148 77l-10 47l466 676zM766 210l-1 -100h-21l1 -102l-114 -7l-2 112l-145 3l-20 24v168l116 4v-104h47l-1 98l118 6v-102h22zM310 521l-17 -33l-251 2l-18 34l-1 48l19 22h98l4 -23l47 3l2 37l-59 5l1 61l56 2l1 36l-48 3l-5 -24h-113l-6 82
l29 26l246 -1l17 -27l-1 -103l-15 -21l15 -24z" />
    <glyph glyph-name="questiondown" unicode="&#xbf;" horiz-adv-x="590" 
d="M399 387h-189l-25 28l22 136l37 30l109 3l51 -34zM25 -150l-5 335l45 49l137 35l4 77h185l12 -119l-48 -105l-132 -26l12 -117l132 -12l25 82l140 -7l38 -32l-9 -188l-103 -38l-393 18z" />
    <glyph glyph-name="Agrave" unicode="&#xc0;" horiz-adv-x="622" 
d="M340 886l-63 -49l-132 129l92 79zM587 711l15 -707l-208 -4l-5 246l-156 -4l-12 -238l-201 -4l31 735l39 47l436 18zM241 410l145 -9l-4 199l-132 -11z" />
    <glyph glyph-name="Aacute" unicode="&#xc1;" horiz-adv-x="622" 
d="M476 966l-133 -129l-63 49l103 159zM587 711l15 -707l-208 -4l-5 246l-156 -4l-12 -238l-201 -4l31 735l39 47l436 18zM241 410l145 -9l-4 199l-132 -11z" />
    <glyph glyph-name="Acircumflex" unicode="&#xc2;" horiz-adv-x="622" 
d="M316 883l-50 -48l-94 46l147 149l142 -144l-92 -50zM587 710l15 -707l-208 -4l-5 246l-156 -4l-12 -237l-201 -4l31 734l39 47l436 18zM241 410l145 -10l-4 199l-132 -11z" />
    <glyph glyph-name="Atilde" unicode="&#xc3;" horiz-adv-x="622" 
d="M253 883l-80 -33l-38 4l2 113l108 47l131 -55l92 43l35 -5v-108l-116 -61zM587 710l15 -707l-208 -4l-5 246l-156 -4l-12 -237l-201 -4l31 734l39 47l436 19zM241 410l145 -10l-4 199l-132 -11z" />
    <glyph glyph-name="Adieresis" unicode="&#xc4;" horiz-adv-x="622" 
d="M587 710l15 -707l-208 -4l-5 246l-156 -4l-12 -237l-201 -4l31 734l39 47l436 19zM241 410l145 -10l-4 199l-132 -11zM491 832h-137l-23 24l10 116l29 30l106 2l45 -30l-4 -119zM273 832h-141l-24 25l20 117l34 28l96 2l45 -30l-4 -119z" />
    <glyph glyph-name="Aring" unicode="&#xc5;" horiz-adv-x="622" 
d="M587 711l15 -707l-208 -4l-5 246l-156 -4l-12 -237l-201 -4l31 734l39 47l436 19zM241 411l145 -10l-4 199l-132 -11zM390 832h-136l-23 25l10 116l29 30l105 2l46 -30l-4 -119zM305 935l-3 -40l48 -2l-2 42h-43z" />
    <glyph glyph-name="AE" unicode="&#xc6;" horiz-adv-x="886" 
d="M393 1l-5 245l-156 -4l-11 -237l-201 -4l30 734l39 47l426 18l342 -16l-2 -183l-264 4v-112l169 -6v-166l-167 7l-1 -135l271 -15l3 -179zM240 411l145 -10l-4 199l-132 -11z" />
    <glyph glyph-name="Ccedilla" unicode="&#xc7;" horiz-adv-x="610" 
d="M260 -31l96 2l46 -30l-4 -130l-80 -101l-76 51l28 38h-40l-23 25l20 117zM389 248l186 -13l5 -161l-37 -71l-451 -3l-67 35l-5 700l30 66l480 -6l60 -53l-14 -217h-189l-17 103l-140 6l8 -464l134 -9z" />
    <glyph glyph-name="Egrave" unicode="&#xc8;" horiz-adv-x="517" 
d="M300 886l-63 -49l-132 129l92 79zM493 179l4 -178h-477v799l468 -15l-3 -183l-263 4l-1 -111l169 -7v-166l-167 7v-135z" />
    <glyph glyph-name="Eacute" unicode="&#xc9;" horiz-adv-x="517" 
d="M424 966l-132 -129l-63 49l103 159zM493 179l4 -178h-477v799l468 -15l-3 -183l-263 4l-1 -111l169 -7v-166l-167 7v-135z" />
    <glyph glyph-name="Ecircumflex" unicode="&#xca;" horiz-adv-x="517" 
d="M257 884l-50 -48l-95 46l148 149l141 -144l-92 -49zM493 179l4 -178h-477v799l468 -15l-3 -183l-263 4l-1 -111l169 -7v-166l-167 7v-135z" />
    <glyph glyph-name="Edieresis" unicode="&#xcb;" horiz-adv-x="517" 
d="M493 180l4 -179h-477v800l468 -16l-3 -183l-263 4l-1 -111l169 -7v-166l-167 7v-135zM429 833h-136l-23 24l10 116l29 30l105 2l46 -30l-4 -119zM211 833h-141l-23 25l20 117l33 28l96 2l46 -30l-4 -119z" />
    <glyph glyph-name="Igrave" unicode="&#xcc;" horiz-adv-x="260" 
d="M167 888l-63 -50l-132 129l92 80zM26 793l214 6l-15 -783l-204 -17z" />
    <glyph glyph-name="Iacute" unicode="&#xcd;" horiz-adv-x="260" 
d="M290 968l-133 -129l-63 49l104 159zM20 0l6 793l214 7l-15 -783z" />
    <glyph glyph-name="Icircumflex" unicode="&#xce;" horiz-adv-x="259" 
d="M133 886l-50 -48l-95 47l148 148l142 -144l-92 -49zM20 0l5 794l214 6l-15 -783z" />
    <glyph glyph-name="Idieresis" unicode="&#xcf;" horiz-adv-x="261" 
d="M296 1008l46 -31l-4 -119l-26 -23h-137l-23 25l10 116l29 29zM120 858l-27 -23h-140l-24 26l20 117l34 27l95 3l46 -31zM21 0l5 794l214 6l-15 -783z" />
    <glyph glyph-name="Eth" unicode="&#xd0;" horiz-adv-x="638" 
d="M541 780l77 -101l-10 -573l-76 -92l-485 -12l2 316l-29 2l3 155l27 -2l3 329zM264 306l-1 -133l142 26l6 400l-145 32l-1 -170l72 -5l-6 -153z" />
    <glyph glyph-name="Ntilde" unicode="&#xd1;" horiz-adv-x="642" 
d="M270 883l-80 -34l-38 5l2 112l107 48l131 -55l93 43l35 -5v-108l-116 -61zM402 790l220 10l-14 -794l-196 -7l-176 351l-5 -330l-211 -21l5 800h216l159 -336z" />
    <glyph glyph-name="Ograve" unicode="&#xd2;" 
d="M537 800l47 -51l-7 -675l-37 -71l-449 -3l-66 38l-5 709l32 50zM230 633l6 -463l135 -9l2 459zM324 885l-63 -49l-133 129l93 79z" />
    <glyph glyph-name="Oacute" unicode="&#xd3;" 
d="M537 800l47 -51l-7 -675l-37 -71l-449 -3l-66 38l-5 709l32 50zM373 620l-143 13l6 -463l135 -9zM460 965l-132 -129l-63 49l103 159z" />
    <glyph glyph-name="Ocircumflex" unicode="&#xd4;" 
d="M537 800l47 -51l-7 -675l-37 -71l-449 -3l-66 38l-5 709l32 50zM371 161l2 459l-143 13l6 -463zM301 883l-50 -48l-94 46l147 149l142 -144l-92 -49z" />
    <glyph glyph-name="Otilde" unicode="&#xd5;" 
d="M537 800l47 -51l-7 -676l-37 -71l-449 -3l-66 39l-5 709l32 50zM371 160l2 460l-143 12l6 -462zM239 882l-81 -33l-37 4l1 113l108 47l131 -55l92 43l36 -5v-107l-116 -62z" />
    <glyph glyph-name="Odieresis" unicode="&#xd6;" 
d="M537 800l47 -51l-7 -675l-37 -71l-449 -3l-66 38l-5 709l32 51zM371 161l2 459l-143 13l6 -463zM475 832h-137l-23 24l10 116l29 30l106 2l45 -30l-4 -119zM257 832h-141l-24 25l20 117l34 28l96 2l45 -30l-4 -119z" />
    <glyph glyph-name="multiply" unicode="&#xd7;" horiz-adv-x="479" 
d="M439 432l-89 -86l88 -92l-108 -107l-91 92l-91 -87l-108 107l92 90l-89 91l114 106l85 -89l92 90z" />
    <glyph glyph-name="Oslash" unicode="&#xd8;" horiz-adv-x="606" 
d="M471 847l135 -76l-25 -44l-7 -653l-36 -71l-371 -3l-30 -52l-137 79l23 40l-5 680l31 50l394 2zM370 620l-143 13l7 -463l135 -9z" />
    <glyph glyph-name="Ugrave" unicode="&#xd9;" horiz-adv-x="608" 
d="M415 792l173 7l-11 -726l-36 -71l-443 -3l-66 38l-12 763h172l38 -34l12 -578l130 -9l6 576zM328 884l-63 -49l-132 129l92 79z" />
    <glyph glyph-name="Uacute" unicode="&#xda;" horiz-adv-x="608" 
d="M415 792l173 7l-11 -726l-36 -71l-443 -3l-66 38l-12 763h172l38 -34l12 -578l130 -9l6 576zM471 964l-132 -129l-63 49l103 159z" />
    <glyph glyph-name="Ucircumflex" unicode="&#xdb;" horiz-adv-x="608" 
d="M415 793l173 6l-11 -725l-36 -71l-443 -3l-66 38l-12 763h172l38 -35l12 -577l130 -8l6 575zM307 883l-51 -48l-94 46l147 148l142 -144l-92 -48z" />
    <glyph glyph-name="Udieresis" unicode="&#xdc;" horiz-adv-x="607" 
d="M415 794l172 5l-10 -725l-36 -71l-443 -3l-67 38l-11 763h171l39 -34l12 -577l130 -9l6 575zM482 832h-137l-22 24l9 116l30 30l105 2l45 -30l-3 -119zM264 832h-141l-23 25l19 117l34 28l96 2l45 -30l-4 -119z" />
    <glyph glyph-name="Yacute" unicode="&#xdd;" horiz-adv-x="603" 
d="M580 742l3 -67l-282 -679l-184 40l-8 44l96 286l-185 405l197 36l101 -192l76 193zM486 977l-132 -129l-63 50l103 159z" />
    <glyph glyph-name="Thorn" unicode="&#xde;" 
d="M583 640l1 -471l-42 -49l-310 -10l-3 -93l-209 -17v800l219 -12l2 -97l302 -12zM374 524l-132 12l-5 -246l136 10z" />
    <glyph glyph-name="germandbls" unicode="&#xdf;" horiz-adv-x="602" 
d="M538 402l44 -56l-6 -278l-71 -53l-213 -16l-3 136l83 47l5 159l-48 66l40 56l-7 159l-135 21l4 -629l-211 -15l7 729l46 73l417 -26l64 -73l12 -264z" />
    <glyph glyph-name="agrave" unicode="&#xe0;" horiz-adv-x="612" 
d="M334 670l-63 -49l-132 129l92 79zM585 547l7 -546l-137 -1l-21 34l-23 -33l-316 2l-75 55l18 264l58 39l280 3l3 68l-142 9l-17 -40l-183 13l-10 74l51 91l441 6zM239 162l144 -6l-1 92l-149 -2z" />
    <glyph glyph-name="aacute" unicode="&#xe1;" horiz-adv-x="612" 
d="M466 750l-132 -129l-63 49l103 159zM585 547l7 -546l-137 -1l-21 34l-23 -33l-316 2l-75 55l18 264l58 39l280 3l3 68l-142 9l-17 -40l-183 13l-10 74l51 91l441 6zM239 162l144 -6l-1 92l-149 -2z" />
    <glyph glyph-name="acircumflex" unicode="&#xe2;" horiz-adv-x="612" 
d="M308 668l-50 -48l-95 46l148 149l141 -144l-92 -49zM585 547l7 -546l-137 -1l-21 34l-23 -33l-316 3l-75 54l18 264l58 39l280 3l3 68l-142 9l-17 -40l-183 13l-10 74l51 92l441 5zM239 162l144 -6l-1 92l-149 -2z" />
    <glyph glyph-name="atilde" unicode="&#xe3;" horiz-adv-x="612" 
d="M251 668l-81 -33l-38 4l2 113l108 47l131 -55l92 43l35 -4v-108l-115 -62zM585 547l7 -546l-137 -1l-21 35l-23 -34l-316 3l-75 54l18 264l58 40l280 2l3 68l-142 9l-17 -39l-183 12l-10 75l51 91l441 6zM239 162l144 -6l-1 92l-149 -2z" />
    <glyph glyph-name="adieresis" unicode="&#xe4;" horiz-adv-x="612" 
d="M491 617h-137l-23 24l10 116l29 30l106 2l45 -30l-4 -119zM273 617h-141l-24 25l20 117l34 28l96 2l45 -30l-4 -119zM585 547l7 -546l-137 -1l-21 34l-23 -33l-316 3l-75 54l18 264l58 39l280 3l3 68l-142 9l-17 -40l-183 13l-10 74l51 92l441 5zM239 162l144 -6l-1 92
l-149 -2z" />
    <glyph glyph-name="aring" unicode="&#xe5;" horiz-adv-x="612" 
d="M585 547l7 -546l-137 -1l-21 35l-23 -34l-316 3l-75 54l18 264l58 40l280 2l3 68l-142 10l-17 -40l-183 12l-10 75l51 91l441 6zM239 163l144 -7l-1 92l-149 -2zM382 617h-136l-23 25l10 116l29 29l105 2l46 -30l-4 -119zM298 700q-2 -6 0 -18q1 -4 4 -5.5t14 -0.5
q1 0 7 -1t7 0q2 1 3 2t1.5 2.5t1 2t0.5 3v3.5q1 7 1 11q2 9 2 12q-1 5 -2 5q-5 2 -30 2q-5 0 -6 -1t-2 -7q0 -6 -1 -10z" />
    <glyph glyph-name="ae" unicode="&#xe6;" horiz-adv-x="968" 
d="M748 179l183 -12l10 -71l-42 -92l-388 -4l-20 27l-19 -27l-378 4l-74 54l18 264l58 40l280 2l2 68l-141 10l-17 -40l-184 12l-9 75l51 91l390 6l22 -31l20 31l363 -9l75 -51l-18 -275l-58 -40l-280 8l-2 -67l141 -10zM735 320l-6 102l-144 6l2 -94zM233 246l6 -84l144 -6
l-2 92z" />
    <glyph glyph-name="ccedilla" unicode="&#xe7;" horiz-adv-x="606" 
d="M260 -28l96 2l45 -30l-4 -130l-80 -100l-76 50l28 38h-39l-24 26l20 117zM383 226l191 -9l5 -139l-40 -72l-448 -6l-66 39l-5 479l39 68l453 -9l74 -51l-10 -185h-193l-11 80l-138 6l4 -259l131 -9z" />
    <glyph glyph-name="egrave" unicode="&#xe8;" horiz-adv-x="610" 
d="M326 674l-63 -49l-133 129l93 79zM390 180l183 -12l10 -71l-42 -93l-450 -4l-66 40l-5 482l62 64l433 -8l75 -52l-18 -275l-59 -40l-279 9l-3 -68l142 -9zM227 428l1 -94l149 -13l-6 101z" />
    <glyph glyph-name="eacute" unicode="&#xe9;" horiz-adv-x="610" 
d="M468 754l-133 -129l-63 49l103 159zM390 180l183 -12l10 -71l-42 -93l-450 -4l-66 40l-5 482l62 64l433 -8l75 -52l-18 -275l-59 -40l-279 9l-3 -68l142 -9zM227 428l1 -94l149 -13l-6 101z" />
    <glyph glyph-name="ecircumflex" unicode="&#xea;" horiz-adv-x="610" 
d="M303 671l-50 -48l-95 46l147 149l142 -144l-92 -49zM390 179l183 -12l10 -71l-42 -92l-450 -4l-66 40l-5 481l62 65l433 -9l75 -51l-18 -275l-59 -40l-279 8l-3 -67l142 -10zM227 427l1 -93l149 -14l-6 101z" />
    <glyph glyph-name="edieresis" unicode="&#xeb;" horiz-adv-x="610" 
d="M476 619h-137l-22 25l9 116l30 29l105 3l45 -31l-3 -119zM258 619h-141l-23 26l19 117l34 27l96 3l45 -31l-4 -119zM390 179l183 -12l10 -71l-42 -93l-450 -3l-66 39l-5 482l62 64l433 -8l75 -52l-18 -275l-59 -39l-279 8l-3 -68l142 -9zM227 427l1 -94l149 -13l-6 101z
" />
    <glyph glyph-name="igrave" unicode="&#xec;" horiz-adv-x="316" 
d="M215 670l-63 -49l-132 128l92 80zM80 584h216l-18 -574l-203 -10z" />
    <glyph glyph-name="iacute" unicode="&#xed;" horiz-adv-x="313" 
d="M293 749l-132 -128l-63 49l103 159zM20 0l5 584h217l-19 -574z" />
    <glyph glyph-name="icircumflex" unicode="&#xee;" horiz-adv-x="328" 
d="M164 668l-50 -48l-94 46l147 149l141 -144l-91 -49zM53 0l5 585h217l-19 -575z" />
    <glyph glyph-name="idieresis" unicode="&#xef;" horiz-adv-x="453" 
d="M387 789l46 -30l-4 -119l-26 -23h-137l-23 24l10 117l29 29zM211 640l-27 -23h-140l-24 25l20 117l34 28l95 2l46 -30zM112 0l6 585h216l-18 -575z" />
    <glyph glyph-name="eth" unicode="&#xf0;" horiz-adv-x="616" 
d="M592 475l4 -418l-44 -55l-448 3l-72 72l-12 360l62 78l264 -19l-40 66l-64 -38l-67 128l55 33l-31 51l165 90l29 -45l51 31l74 -127l-45 -27zM380 170l-1 155l-135 14l-11 -165z" />
    <glyph glyph-name="ntilde" unicode="&#xf1;" 
d="M237 669l-80 -33l-38 4l2 113l108 47l131 -55l92 43l35 -4v-108l-116 -62zM544 585l40 -40l-2 -518l-50 -27l-159 2l-1 403l-141 -4l3 -388l-211 -14l-3 574l128 2l18 -30l25 25z" />
    <glyph glyph-name="ograve" unicode="&#xf2;" 
d="M324 670l-63 -49l-132 129l92 79zM532 580l52 -69l-5 -437l-39 -70l-448 -4l-67 36l-5 482l40 68zM369 148l3 273l-140 6l4 -267z" />
    <glyph glyph-name="oacute" unicode="&#xf3;" 
d="M464 750l-132 -129l-63 49l103 159zM532 580l52 -69l-5 -437l-39 -70l-448 -4l-67 36l-5 482l40 68zM369 148l3 273l-140 6l4 -267z" />
    <glyph glyph-name="ocircumflex" unicode="&#xf4;" 
d="M304 667l-50 -48l-94 46l147 149l142 -144l-92 -49zM532 579l52 -69l-5 -437l-39 -70l-448 -3l-67 35l-5 482l40 68zM369 147l3 273l-140 6l4 -267z" />
    <glyph glyph-name="otilde" unicode="&#xf5;" 
d="M237 670l-81 -33l-37 4l1 113l108 47l131 -55l92 43l36 -5v-108l-116 -61zM532 579l52 -69l-5 -436l-39 -71l-448 -3l-67 35l-5 483l40 67zM369 148l3 273l-140 6l4 -268z" />
    <glyph glyph-name="odieresis" unicode="&#xf6;" 
d="M478 618h-136l-23 25l9 116l30 30l105 2l46 -31l-4 -118zM260 618h-141l-23 26l19 117l34 28l96 2l45 -31l-3 -118zM532 579l52 -69l-5 -437l-39 -70l-448 -3l-67 35l-5 482l40 68zM369 147l3 273l-140 6l4 -267z" />
    <glyph glyph-name="divide" unicode="&#xf7;" horiz-adv-x="492" 
d="M47 428l405 -7v-153l-412 5zM298 450h-108l-21 22l16 87l27 23l73 2l37 -25l-2 -81zM195 243h108l20 -22l-15 -87l-27 -23l-74 -1l-37 24l3 81z" />
    <glyph glyph-name="oslash" unicode="&#xf8;" horiz-adv-x="610" 
d="M610 528l-27 -33l-4 -420l-39 -71l-368 -3l-45 -55l-127 98l24 29l-4 445l39 68l393 -5l36 44zM232 427l4 -267l133 -11l3 272z" />
    <glyph glyph-name="ugrave" unicode="&#xf9;" horiz-adv-x="603" 
d="M326 671l-63 -49l-132 129l92 79zM421 579l162 7l-3 -585h-132l-21 30l-20 -30l-317 3l-66 39l-4 544l161 -6l43 -53l19 -355l123 -16l17 374z" />
    <glyph glyph-name="uacute" unicode="&#xfa;" 
d="M469 751l-132 -129l-63 49l103 159zM422 579l162 7l-3 -585h-133l-21 30l-19 -30l-317 3l-66 39l-5 544l162 -6l42 -53l19 -355l124 -16l17 374z" />
    <glyph glyph-name="ucircumflex" unicode="&#xfb;" 
d="M303 669l-50 -48l-94 46l147 149l142 -144l-92 -49zM422 579l162 7l-3 -584l-133 -1l-21 30l-19 -30l-317 3l-66 39l-5 544l162 -6l42 -53l19 -355l124 -16l17 374z" />
    <glyph glyph-name="udieresis" unicode="&#xfc;" 
d="M481 618h-136l-23 24l9 117l30 29l105 2l46 -30l-4 -119zM263 618h-141l-23 25l19 117l34 28l96 2l45 -30l-3 -119zM422 579l162 7l-3 -584l-133 -1l-21 30l-19 -30l-317 3l-66 39l-5 544l162 -6l42 -53l19 -355l124 -16l17 374z" />
    <glyph glyph-name="yacute" unicode="&#xfd;" horiz-adv-x="600" 
d="M477 753l-132 -129l-63 49l103 159zM414 579l166 8l-7 -788l-64 -54l-436 9l-49 77l6 100l22 36l162 3l19 -65l140 10l-3 100l-276 -15l-57 56l-17 531l170 -2l35 -28l6 -377l139 7l7 352z" />
    <glyph glyph-name="thorn" unicode="&#xfe;" 
d="M583 529l1 -471l-42 -49l-310 -9l-3 -239l-209 -17v1056l219 -12l3 -207l301 -13zM374 413l-132 13l-5 -247l136 10z" />
    <glyph glyph-name="ydieresis" unicode="&#xff;" horiz-adv-x="600" 
d="M413 578l167 8l-7 -787l-64 -55l-436 9l-49 77l6 100l22 37l161 3l20 -66l140 11l-3 99l-276 -14l-57 56l-17 531l170 -2l35 -28l6 -377l139 7l7 352zM480 619h-137l-22 25l9 116l29 29l106 2l45 -30l-4 -119zM262 619h-141l-23 25l19 117l34 28l96 2l45 -30l-4 -119z
" />
    <glyph glyph-name="Amacron" unicode="&#x100;" horiz-adv-x="622" 
d="M489 971l-3 -130l-347 -1l2 132zM587 711l15 -707l-208 -4l-5 246l-156 -4l-12 -237l-201 -4l31 734l39 47l436 19zM241 411l145 -10l-4 199l-132 -11z" />
    <glyph glyph-name="amacron" unicode="&#x101;" horiz-adv-x="612" 
d="M487 757l-3 -130l-347 -1l2 132zM585 547l7 -546l-137 -1l-21 35l-23 -34l-316 3l-75 54l18 264l58 40l280 2l3 68l-142 10l-17 -40l-183 12l-10 75l51 91l441 6zM239 162l144 -6l-1 92l-149 -2z" />
    <glyph glyph-name="Abreve" unicode="&#x102;" horiz-adv-x="620" 
d="M380 833h-132l-126 96l64 102l80 -65l90 1l84 55l72 -96zM586 710l14 -707l-206 -4l-6 246l-156 -4l-12 -237l-200 -4l30 734l40 47l436 19zM240 410l146 -10l-4 199l-134 -11z" />
    <glyph glyph-name="abreve" unicode="&#x103;" horiz-adv-x="612" 
d="M379 618h-131l-128 97l65 101l80 -65l90 1l84 55l71 -96zM585 547l7 -546l-137 -1l-21 34l-23 -33l-316 3l-75 54l18 264l58 39l280 3l3 68l-142 9l-17 -39l-183 12l-10 74l51 92l441 6zM239 162l144 -6l-1 92l-149 -2z" />
    <glyph glyph-name="Aogonek" unicode="&#x104;" horiz-adv-x="622" 
d="M532 -88l58 -45l2 -40l-57 -82l-143 120l-6 39l42 97l-34 -1l-5 246l-156 -4l-12 -237l-201 -4l31 734l39 47l436 19l61 -90l15 -706l-31 -1zM241 411l145 -10l-4 199l-132 -11z" />
    <glyph glyph-name="aogonek" unicode="&#x105;" horiz-adv-x="612" 
d="M585 547l7 -546l-137 -1l-21 35l-23 -34h-35l-37 -89l57 -45l2 -41l-57 -81l-142 120l-7 39l44 99l-141 1l-75 54l18 264l58 40l280 2l3 68l-142 10l-17 -40l-183 12l-10 75l51 91l441 6zM382 248l-149 -2l6 -83l144 -7z" />
    <glyph glyph-name="Cacute" unicode="&#x106;" horiz-adv-x="610" 
d="M474 965l-132 -129l-63 49l103 159zM389 247l186 -12l5 -161l-37 -71l-451 -3l-67 35l-5 700l30 65l480 -6l60 -52l-14 -217h-189l-17 103l-140 6l8 -464l134 -9z" />
    <glyph glyph-name="cacute" unicode="&#x107;" horiz-adv-x="606" 
d="M471 753l-132 -129l-63 49l103 159zM383 226l191 -9l5 -139l-40 -72l-448 -6l-66 39l-5 479l39 68l453 -9l74 -51l-10 -185h-193l-11 80l-138 6l4 -259l131 -9z" />
    <glyph glyph-name="Ccircumflex" unicode="&#x108;" horiz-adv-x="610" 
d="M302 884l-51 -48l-94 46l147 149l142 -144l-92 -49zM389 249l186 -13l5 -161l-37 -71l-451 -3l-67 35l-5 700l30 65l480 -6l60 -52l-14 -217h-189l-17 103l-140 6l8 -464l134 -9z" />
    <glyph glyph-name="ccircumflex" unicode="&#x109;" horiz-adv-x="606" 
d="M301 670l-50 -48l-95 47l148 148l141 -144l-92 -49zM383 225l191 -9l5 -139l-40 -71l-448 -6l-66 39l-5 479l39 67l453 -9l74 -51l-10 -185h-193l-11 81l-138 6l4 -259l131 -10z" />
    <glyph glyph-name="Cdotaccent" unicode="&#x10a;" horiz-adv-x="610" 
d="M366 833h-136l-23 24l10 116l29 30l105 2l46 -30l-4 -119zM389 249l186 -13l5 -161l-37 -71l-451 -3l-67 35l-5 700l30 65l480 -5l60 -53l-14 -217h-189l-17 103l-140 6l8 -464l134 -9z" />
    <glyph glyph-name="cdotaccent" unicode="&#x10b;" horiz-adv-x="606" 
d="M371 619h-137l-22 25l9 116l29 30l106 2l45 -31l-4 -118zM383 226l191 -9l5 -139l-40 -72l-448 -6l-66 39l-5 479l39 68l453 -9l74 -51l-10 -185h-193l-11 80l-138 6l4 -259l131 -9z" />
    <glyph glyph-name="Ccaron" unicode="&#x10c;" horiz-adv-x="610" 
d="M446 984l-147 -148l-142 144l92 49l53 -46l50 48zM389 249l186 -13l5 -161l-37 -71l-451 -3l-67 35l-5 700l30 65l480 -6l60 -52l-14 -217h-189l-17 103l-140 6l8 -464l134 -9z" />
    <glyph glyph-name="ccaron" unicode="&#x10d;" horiz-adv-x="606" 
d="M445 771l-147 -149l-142 144l92 49l53 -46l50 48zM383 225l191 -9l5 -139l-40 -71l-448 -6l-66 39l-5 479l39 67l453 -9l74 -51l-10 -185h-193l-11 81l-138 6l4 -259l131 -10z" />
    <glyph glyph-name="Dcaron" unicode="&#x10e;" horiz-adv-x="611" 
d="M451 980l-147 -148l-142 144l92 49l53 -47l50 49zM514 780l77 -102l-10 -573l-76 -92l-485 -12l6 800zM379 198l6 400l-146 32l-3 -458z" />
    <glyph glyph-name="dcaron" unicode="&#x10f;" horiz-adv-x="844" 
d="M779 800l45 -30l-3 -130l-80 -100l-76 50l28 38h-40l-23 26l19 117l34 27zM386 789l203 11l6 -800l-127 -1l-22 33l-24 -29l-319 -3l-72 78l-11 429l61 77l300 -22zM232 175l148 -5l-2 221l-134 5z" />
    <glyph glyph-name="Dcroat" unicode="&#x110;" horiz-adv-x="638" 
d="M541 779l77 -101l-10 -573l-76 -92l-485 -12l2 316l-29 2l3 155l27 -2l3 329zM264 305l-1 -133l142 26l6 400l-145 32l-1 -170l72 -5l-6 -153z" />
    <glyph glyph-name="dcroat" unicode="&#x111;" horiz-adv-x="642" 
d="M622 742l-3 -153l-28 1l5 -587l-127 -1l-22 32l-25 -28l-318 -4l-72 78l-12 429l62 78l299 -23l1 33l-79 3l12 155l71 -3l1 39l203 11v-58zM380 173l-2 220l-133 5l-12 -221z" />
    <glyph glyph-name="Emacron" unicode="&#x112;" horiz-adv-x="517" 
d="M428 971l-3 -130l-347 -1l2 132zM493 180l4 -179h-477v800l468 -15l-3 -183l-263 3l-1 -111l169 -7v-165l-167 6v-135z" />
    <glyph glyph-name="emacron" unicode="&#x113;" horiz-adv-x="610" 
d="M474 760l-3 -131l-347 -1l2 133zM390 179l183 -12l10 -71l-42 -92l-450 -4l-66 40l-5 481l62 65l433 -9l75 -51l-18 -275l-59 -40l-279 8l-3 -67l142 -10zM227 427l1 -93l149 -14l-6 101z" />
    <glyph glyph-name="Ebreve" unicode="&#x114;" horiz-adv-x="517" 
d="M318 834h-132l-128 97l65 101l80 -65l91 1l83 55l72 -96zM493 180l4 -179h-477v800l468 -15l-3 -184l-263 4l-1 -111l169 -7v-165l-167 6v-135z" />
    <glyph glyph-name="ebreve" unicode="&#x115;" horiz-adv-x="610" 
d="M364 621h-132l-127 96l65 102l80 -65l90 1l84 55l71 -96zM390 179l183 -12l10 -71l-42 -92l-450 -4l-66 39l-5 482l62 65l433 -9l75 -51l-18 -276l-59 -39l-279 8l-3 -67l142 -10zM227 427l1 -94l149 -13l-6 101z" />
    <glyph glyph-name="Edotaccent" unicode="&#x116;" horiz-adv-x="517" 
d="M328 833h-137l-23 24l10 116l29 30l106 2l45 -30l-4 -119zM493 180l4 -179h-477v800l468 -16l-3 -183l-263 4l-1 -111l169 -7v-166l-167 7v-135z" />
    <glyph glyph-name="edotaccent" unicode="&#x117;" horiz-adv-x="610" 
d="M364 620h-137l-23 25l10 116l29 29l105 3l46 -31l-4 -119zM390 180l183 -12l10 -71l-42 -93l-450 -3l-66 39l-5 482l62 64l433 -8l75 -52l-18 -275l-59 -39l-279 8l-3 -68l142 -9zM227 428l1 -94l149 -13l-6 101z" />
    <glyph glyph-name="Eogonek" unicode="&#x118;" horiz-adv-x="516" 
d="M309 -88l58 -45l2 -40l-57 -82l-143 120l-6 39l42 97h-185v800l467 -15l-2 -183l-264 3v-111l169 -7v-165l-167 6l-1 -134l271 -15l3 -179h-149z" />
    <glyph glyph-name="eogonek" unicode="&#x119;" horiz-adv-x="610" 
d="M390 179l183 -12l10 -71l-42 -92l-172 -2l-37 -87l57 -45l2 -41l-57 -82l-143 120l-6 40l42 94l-136 -1l-66 40l-5 481l62 65l433 -9l75 -51l-18 -275l-59 -40l-279 8l-3 -67l142 -10zM371 422l-144 6l1 -94l149 -14z" />
    <glyph glyph-name="Ecaron" unicode="&#x11a;" horiz-adv-x="517" 
d="M401 984l-147 -148l-142 144l92 49l53 -46l50 48zM493 179l4 -178h-477v799l468 -15l-3 -183l-263 4l-1 -111l169 -7v-166l-167 7v-135z" />
    <glyph glyph-name="ecaron" unicode="&#x11b;" horiz-adv-x="610" 
d="M447 771l-147 -148l-142 144l92 49l53 -46l50 48zM390 179l183 -12l10 -71l-42 -92l-450 -4l-66 40l-5 481l62 65l433 -9l75 -51l-18 -275l-59 -40l-279 8l-3 -67l142 -10zM227 427l1 -93l149 -14l-6 101z" />
    <glyph glyph-name="Gcircumflex" unicode="&#x11c;" 
d="M300 883l-50 -48l-94 46l147 149l142 -144l-92 -49zM308 420l267 -2l4 -341l-36 -71l-452 -6l-66 38l-5 707l32 47l472 8l60 -50l-13 -225h-188l-14 107l-140 -7l7 -455l136 -9l4 96l-68 6v157z" />
    <glyph glyph-name="gcircumflex" unicode="&#x11d;" horiz-adv-x="608" 
d="M302 669l-50 -48l-95 46l147 149l142 -144l-92 -49zM461 587l127 3l-4 -789l-64 -55l-442 9l-49 76l7 101l22 37l163 2l20 -65l137 10l-3 99l-284 -14l-57 57l-14 443l71 84l325 -2l22 -30zM372 189l2 225l-148 -8l5 -225z" />
    <glyph glyph-name="Gbreve" unicode="&#x11e;" 
d="M364 833h-132l-128 97l65 101l80 -65l91 1l83 55l72 -96zM308 420l267 -2l4 -341l-36 -71l-452 -6l-66 38l-5 707l32 47l472 8l60 -49l-13 -226h-188l-14 107l-140 -7l7 -455l136 -9l4 96l-68 7v156z" />
    <glyph glyph-name="gbreve" unicode="&#x11f;" horiz-adv-x="608" 
d="M370 619h-132l-128 96l65 101l80 -65l91 1l83 55l72 -96zM461 586l127 3l-4 -789l-64 -55l-442 9l-49 77l7 100l22 37l163 2l20 -65l137 10l-3 99l-284 -13l-57 56l-14 443l71 84l325 -1l22 -30zM372 188l2 226l-148 -9l5 -225z" />
    <glyph glyph-name="Gdotaccent" unicode="&#x120;" 
d="M365 832h-136l-23 24l9 116l30 30l105 2l45 -30l-3 -119zM308 420l267 -2l4 -341l-36 -71l-452 -6l-66 38l-5 707l32 47l472 8l60 -49l-13 -226h-188l-14 107l-140 -7l7 -455l136 -9l4 96l-68 6v157z" />
    <glyph glyph-name="gdotaccent" unicode="&#x121;" horiz-adv-x="608" 
d="M368 618h-136l-23 25l10 116l29 29l105 2l46 -30l-4 -119zM461 587l127 3l-4 -789l-64 -55l-442 9l-49 76l7 101l22 37l163 2l20 -65l137 10l-3 99l-284 -14l-57 57l-14 443l71 84l325 -2l22 -30zM372 189l2 226l-148 -9l5 -225z" />
    <glyph glyph-name="uni0122" unicode="&#x122;" 
d="M261 -31l96 2l45 -30l-3 -130l-80 -101l-76 51l28 38h-40l-23 25l19 117zM308 420l267 -2l4 -341l-36 -71l-452 -6l-66 38l-5 707l32 47l472 8l60 -50l-13 -225h-188l-14 107l-140 -7l7 -455l136 -9l4 96l-68 6v157z" />
    <glyph glyph-name="uni0123" unicode="&#x123;" horiz-adv-x="608" 
d="M359 630l-96 -2l-46 30l4 130l80 100l76 -50l-28 -38h40l23 -25l-20 -117zM461 587l127 3l-4 -789l-64 -55l-442 9l-49 76l7 101l22 37l163 2l20 -65l137 10l-3 99l-284 -14l-57 57l-14 443l71 84l325 -1l22 -30zM372 189l2 226l-148 -9l5 -225z" />
    <glyph glyph-name="Hcircumflex" unicode="&#x124;" horiz-adv-x="622" 
d="M323 883l-51 -48l-94 46l147 149l142 -145l-92 -49zM385 800l217 -6l-12 -795l-212 7l3 310l-141 4l-5 -311l-215 -10l6 800h223l-5 -302l138 -5z" />
    <glyph glyph-name="hcircumflex" unicode="&#x125;" horiz-adv-x="656" 
d="M164 885l-50 -48l-94 46l147 149l142 -145l-92 -49zM575 586l61 -78l-6 -507l-207 4l-9 392l-135 -9l6 -374l-221 -14l-3 801l209 -16l5 -216z" />
    <glyph glyph-name="Hbar" unicode="&#x126;" horiz-adv-x="678" 
d="M658 714l-6 -153l-28 1l-8 -562l-212 6l3 310l-141 5l-5 -312l-215 -10l4 576h-30l4 155h27l1 69h223l-1 -75l136 -4l1 80l217 -6l-1 -80h31zM270 497l138 -4l1 73l-138 4z" />
    <glyph glyph-name="hbar" unicode="&#x127;" horiz-adv-x="644" 
d="M563 585l61 -77l-6 -507l-207 3l-9 392l-135 -9l6 -373l-221 -14l-2 592l-30 -1l3 155l27 1l-1 53l209 -16l1 -29l75 3l6 -152l-77 -4v-34z" />
    <glyph glyph-name="Itilde" unicode="&#x128;" horiz-adv-x="260" 
d="M282 1005l35 -5v-108l-116 -61l-134 55l-80 -34l-38 5l2 112l107 48l131 -55zM20 0l5 793l215 7l-16 -783z" />
    <glyph glyph-name="itilde" unicode="&#x129;" horiz-adv-x="407" 
d="M352 786l35 -4v-108l-115 -61l-134 54l-81 -33l-37 4l1 113l108 47l131 -55zM96 0l5 584h216l-18 -574z" />
    <glyph glyph-name="Imacron" unicode="&#x12a;" horiz-adv-x="261" 
d="M-36 974l348 -1l-2 -130l-347 -1zM20 0l6 793l214 7l-15 -783z" />
    <glyph glyph-name="imacron" unicode="&#x12b;" horiz-adv-x="389" 
d="M21 758l348 -1l-2 -131l-347 -1zM81 0l5 585h217l-19 -575z" />
    <glyph glyph-name="Ibreve" unicode="&#x12c;" horiz-adv-x="262" 
d="M203 837h-132l-128 96l65 102l80 -65h91l83 56l72 -96zM21 0l6 794l214 6l-15 -783z" />
    <glyph glyph-name="ibreve" unicode="&#x12d;" horiz-adv-x="430" 
d="M279 619h-131l-128 96l65 101l80 -65l90 1l84 55l71 -96zM103 0l5 585h216l-18 -574z" />
    <glyph glyph-name="Iogonek" unicode="&#x12e;" horiz-adv-x="259" 
d="M224 17l-28 -2l-44 -104l58 -45l2 -40l-57 -82l-143 120l-6 39l43 99l-29 -2l5 793l214 7z" />
    <glyph glyph-name="iogonek" unicode="&#x12f;" horiz-adv-x="267" 
d="M188 605l-109 -2l-51 33l5 163h189l25 -27l-22 -136zM19 0l6 584h216l-18 -574l-30 -2l-41 -97l58 -45l2 -41l-57 -81l-143 120l-6 39l43 98z" />
    <glyph glyph-name="Idotaccent" unicode="&#x130;" horiz-adv-x="259" 
d="M198 835h-137l-23 24l10 116l29 30l106 2l45 -30l-4 -119zM25 793l214 7l-15 -783l-204 -17z" />
    <glyph glyph-name="dotlessi" unicode="&#x131;" horiz-adv-x="262" 
d="M26 585h216l-19 -575l-203 -10z" />
    <glyph glyph-name="IJ" unicode="&#x132;" horiz-adv-x="602" 
d="M230 801l-13 -493l-192 -13l5 501zM560 800l22 -42v-5l-5 -699l-64 -55l-441 6l-52 76l10 181l184 3l14 -104l139 10l11 441l-79 -3l-35 46v142z" />
    <glyph glyph-name="ij" unicode="&#x133;" horiz-adv-x="610" 
d="M530 605l-109 -3l-50 34l5 163h189l25 -28l-22 -135zM276 579l259 6l52 -71l-5 -718l-64 -55l-430 9l-52 76l10 141l194 2l17 -68l106 10l4 483l-56 7l-35 44v134zM242 584l-19 -574l-203 -11l5 585h217zM188 605l-109 -3l-50 34l5 163h189l25 -28l-22 -135z" />
    <glyph glyph-name="Jcircumflex" unicode="&#x134;" horiz-adv-x="602" 
d="M391 886l-50 -48l-94 46l147 148l142 -144l-92 -49zM560 802l22 -42v-5l-5 -700l-64 -54l-441 5l-52 77l10 181l184 3l14 -104l139 10l11 440l-159 -5l-36 46v142z" />
    <glyph glyph-name="jcircumflex" unicode="&#x135;" horiz-adv-x="591" 
d="M408 668l-51 -48l-94 47l147 148l142 -144l-92 -49zM519 586l52 -71l-5 -718l-64 -55l-430 9l-52 76l10 141l194 2l16 -67l107 9l4 482l-95 8l-35 44v134z" />
    <glyph glyph-name="uni0136" unicode="&#x136;" horiz-adv-x="628" 
d="M252 -30l96 2l45 -30l-3 -130l-80 -101l-76 51l28 38h-40l-23 25l19 117zM577 517l-87 -53l108 -370l-16 -49l-182 -49l-93 356l-68 -42l-10 -291l-209 -20l6 802h231l-9 -248l130 83l11 164l219 -6z" />
    <glyph glyph-name="uni0137" unicode="&#x137;" horiz-adv-x="615" 
d="M251 -29l96 3l46 -31l-4 -130l-80 -100l-76 51l28 37h-40l-23 26l20 117zM563 341l-77 -47l98 -199l-16 -51l-179 -48l-86 186l-70 -43l-5 -123l-208 -17l3 791l234 10l-15 -418l123 78l12 124l218 -6z" />
    <glyph glyph-name="kgreenlandic" unicode="&#x138;" horiz-adv-x="570" 
d="M527 356l-62 -32l76 -254l-27 -41l-164 -31l-63 232l-56 -29l-6 -185l-205 -15l5 583h220l-6 -177l91 57l8 121l212 -5z" />
    <glyph glyph-name="Lacute" unicode="&#x139;" horiz-adv-x="540" 
d="M304 966l-132 -129l-63 49l103 159zM514 190l6 -189h-500l7 803l214 -14l-11 -596z" />
    <glyph glyph-name="lacute" unicode="&#x13a;" horiz-adv-x="354" 
d="M334 965l-132 -129l-63 50l103 159zM20 631l1 168h260l-18 -782l-209 -18l5 614z" />
    <glyph glyph-name="uni013B" unicode="&#x13b;" horiz-adv-x="540" 
d="M228 -30l96 2l45 -30l-3 -130l-80 -100l-76 50l28 38h-40l-23 25l19 117zM514 191l6 -190h-500l7 803l214 -13l-11 -597z" />
    <glyph glyph-name="uni013C" unicode="&#x13c;" horiz-adv-x="301" 
d="M107 -31l96 2l45 -30l-3 -131l-80 -100l-76 51l28 37h-40l-23 26l20 117zM21 799h260l-18 -783l-209 -17l5 613l-39 18z" />
    <glyph glyph-name="Lcaron" unicode="&#x13d;" horiz-adv-x="540" 
d="M343 627h-39l-24 26l20 117l34 27l95 2l46 -30l-4 -130l-80 -100l-76 50zM514 189l6 -190h-500l7 803l214 -13l-11 -597z" />
    <glyph glyph-name="lcaron" unicode="&#x13e;" horiz-adv-x="531" 
d="M466 800l45 -30l-3 -130l-80 -101l-76 51l28 38h-40l-23 25l20 117l33 28zM20 630l1 169h259l-17 -783l-209 -17l4 613z" />
    <glyph glyph-name="Ldot" unicode="&#x13f;" horiz-adv-x="540" 
d="M514 188l6 -190h-500l7 803l214 -13l-11 -597zM431 319h-136l-23 25l10 116l29 29l105 2l46 -30l-4 -119z" />
    <glyph glyph-name="ldot" unicode="&#x140;" horiz-adv-x="525" 
d="M459 493l46 -30l-4 -119l-26 -23h-137l-23 25l10 116l29 29zM20 630l1 169h260l-18 -782l-209 -18l5 614z" />
    <glyph glyph-name="Lslash" unicode="&#x141;" horiz-adv-x="599" 
d="M579 -1h-500l1 161l-21 -13l-39 165l62 39l4 451l214 -13l-6 -305l98 61l76 -154l-178 -106l-1 -92l284 -4z" />
    <glyph glyph-name="lslash" unicode="&#x142;" horiz-adv-x="396" 
d="M332 533l44 -159l-69 -49l-7 -308l-209 -18l1 171l-25 -18l-47 145l73 55l2 261l-38 17l1 169h259l-6 -282z" />
    <glyph glyph-name="Nacute" unicode="&#x143;" horiz-adv-x="642" 
d="M465 965l-132 -129l-63 49l103 159zM402 790l220 10l-14 -794l-196 -7l-176 351l-5 -330l-211 -21l5 800h216l159 -336z" />
    <glyph glyph-name="nacute" unicode="&#x144;" 
d="M452 749l-133 -129l-63 49l104 159zM544 585l40 -40l-2 -518l-50 -28l-159 3l-1 402l-141 -3l3 -388l-211 -14l-3 574l128 2l18 -30l25 25z" />
    <glyph glyph-name="uni0145" unicode="&#x145;" horiz-adv-x="642" 
d="M264 -30l95 2l46 -30l-4 -131l-80 -100l-76 51l28 37h-39l-24 26l20 117zM402 790l220 10l-14 -794l-196 -6l-176 351l-5 -331l-211 -20l5 800h216l159 -337z" />
    <glyph glyph-name="uni0146" unicode="&#x146;" 
d="M256 -31l96 2l45 -30l-3 -130l-80 -101l-76 51l28 38h-40l-23 25l20 117zM544 585l40 -40l-2 -518l-50 -27l-159 2l-1 403l-141 -4l3 -388l-211 -14l-3 574l128 2l18 -30l25 25z" />
    <glyph glyph-name="Ncaron" unicode="&#x147;" horiz-adv-x="642" 
d="M470 980l-147 -148l-142 144l92 49l52 -46l51 48zM402 790l220 10l-14 -793l-196 -7l-176 351l-5 -331l-211 -20l5 800h216l159 -337z" />
    <glyph glyph-name="ncaron" unicode="&#x148;" 
d="M448 763l-147 -149l-142 144l92 49l53 -46l50 48zM544 584l40 -39l-2 -519l-50 -27l-159 3l-1 402l-141 -4l3 -387l-211 -14l-3 573l128 3l18 -30l25 24z" />
    <glyph glyph-name="napostrophe" unicode="&#x149;" horiz-adv-x="786" 
d="M215 770l-3 -130l-80 -100l-77 50l29 38h-40l-24 26l20 117l34 27l96 2zM725 585l41 -39l-3 -519l-50 -27l-158 3l-1 402l-141 -4l3 -387l-211 -14l-3 573l128 3l18 -30l25 24z" />
    <glyph glyph-name="Eng" unicode="&#x14a;" horiz-adv-x="643" 
d="M402 790l221 10l-17 -1001l-65 -55l-260 -1v165l119 7v109l-163 327l-5 -331l-212 -21l6 801h216l158 -337z" />
    <glyph glyph-name="eng" unicode="&#x14b;" 
d="M544 584l40 -40l-4 -745l-64 -54l-260 -1v164l119 7l-3 489l-141 -4l3 -387l-211 -14l-3 573l128 3l18 -30l25 24z" />
    <glyph glyph-name="Omacron" unicode="&#x14c;" 
d="M537 801l47 -51l-7 -675l-37 -71l-449 -3l-66 38l-5 709l32 50zM230 634l6 -463l135 -9l2 459zM476 976l-2 -135l-347 -1l1 138z" />
    <glyph glyph-name="omacron" unicode="&#x14d;" 
d="M476 756l-3 -131l-347 -1l2 133zM532 579l52 -69l-5 -437l-39 -70l-448 -3l-67 35l-5 482l40 68zM369 147l3 273l-140 6l4 -267z" />
    <glyph glyph-name="Obreve" unicode="&#x14e;" 
d="M537 802l47 -51l-7 -675l-37 -71l-449 -3l-66 39l-5 708l32 51zM371 163l2 459l-143 13l6 -463zM365 835h-132l-127 97l65 101l80 -65l90 1l84 55l71 -96z" />
    <glyph glyph-name="obreve" unicode="&#x14f;" 
d="M367 618h-132l-128 96l66 101l80 -65l90 1l84 55l71 -96zM532 579l52 -69l-5 -436l-39 -71l-448 -3l-67 35l-5 482l40 68zM369 148l3 272l-140 6l4 -267z" />
    <glyph glyph-name="Ohungarumlaut" unicode="&#x150;" 
d="M537 802l47 -51l-7 -675l-37 -71l-449 -3l-66 38l-5 709l32 50zM371 163l2 459l-143 13l6 -463zM392 838l-63 49l103 159l92 -79zM343 967l-132 -129l-63 49l103 159z" />
    <glyph glyph-name="ohungarumlaut" unicode="&#x151;" 
d="M396 621l-63 49l103 159l92 -79zM347 750l-132 -129l-63 49l103 159zM532 580l52 -69l-5 -437l-39 -70l-448 -4l-67 36l-5 482l40 68zM369 148l3 273l-140 6l4 -267z" />
    <glyph glyph-name="OE" unicode="&#x152;" horiz-adv-x="868" 
d="M845 179l3 -178h-757l-66 38l-5 709l31 50l477 3h1l310 -16l-3 -183l-263 4v-111l168 -7v-166l-166 7l-1 -135zM372 621l-143 13l7 -463l135 -9z" />
    <glyph glyph-name="oe" unicode="&#x153;" horiz-adv-x="960" 
d="M740 179l183 -12l10 -71l-42 -92l-388 -4l-22 30l-16 -28l-373 -2l-67 36l-5 482l40 67l401 -7l18 -26l22 34l364 -9l75 -51l-18 -275l-59 -40l-280 8l-2 -67l142 -9zM726 321l-5 101l-144 6l1 -94zM373 421l-141 6l4 -268l133 -11z" />
    <glyph glyph-name="Racute" unicode="&#x154;" 
d="M472 966l-133 -129l-63 50l103 159zM545 222l-50 -3l70 -145l-17 -34l-159 -42l-112 207l-45 -3l-3 -184l-209 -17v801l524 -24l39 -39l1 -450zM373 391l1 224l-132 12l-5 -247z" />
    <glyph glyph-name="racute" unicode="&#x155;" horiz-adv-x="576" 
d="M504 575l52 -69l-3 -180l-30 -49l-157 3l-14 120l-115 5v-405l-209 10l-8 571l125 -2l19 -33l24 27zM445 748l-132 -129l-63 49l103 159z" />
    <glyph glyph-name="uni0156" unicode="&#x156;" 
d="M254 -29l95 2l46 -30l-4 -130l-80 -101l-76 51l28 38h-39l-24 25l20 117zM545 223l-50 -4l70 -145l-17 -34l-159 -41l-112 206l-45 -3l-3 -183l-209 -17v800l524 -23l39 -39l1 -450zM373 391l1 224l-132 13l-5 -247z" />
    <glyph glyph-name="uni0157" unicode="&#x157;" horiz-adv-x="576" 
d="M504 575l52 -69l-3 -180l-30 -49l-157 3l-14 120l-115 5v-405l-209 10l-8 571l125 -1l19 -34l24 27zM78 -33l96 2l45 -30l-3 -130l-80 -100l-76 50l28 38h-40l-23 26l19 117z" />
    <glyph glyph-name="Rcaron" unicode="&#x158;" 
d="M445 981l-147 -149l-142 144l92 49l53 -46l50 48zM545 222l-50 -3l70 -145l-17 -34l-159 -42l-112 207l-45 -3l-3 -184l-209 -17v801l524 -24l39 -39l1 -450zM373 391l1 224l-132 12l-5 -247z" />
    <glyph glyph-name="rcaron" unicode="&#x159;" horiz-adv-x="576" 
d="M504 575l52 -69l-3 -180l-30 -49l-157 3l-14 120l-115 5v-405l-209 10l-8 571l125 -1l19 -34l24 27zM433 762l-147 -149l-142 145l92 49l53 -47l50 48z" />
    <glyph glyph-name="Sacute" unicode="&#x15a;" horiz-adv-x="606" 
d="M453 965l-132 -128l-63 49l103 159zM537 463l49 -105l-7 -297l-63 -56l-458 -4l-38 79l19 194l178 -1l13 -89l148 3l5 126l-309 35l-45 51l5 335l39 48l367 18l129 -37l9 -189l-37 -32l-140 -7l-25 82l-133 -12l-11 -115z" />
    <glyph glyph-name="sacute" unicode="&#x15b;" horiz-adv-x="598" 
d="M456 750l-132 -129l-63 50l103 159zM534 343l44 -86l-8 -211l-57 -42l-451 -5l-42 46l14 164h179l11 -51l152 -1l4 75l-307 26l-47 38l5 239l41 36l419 13l73 -26l9 -140l-38 -28l-144 -5l-20 56l-137 -7l-10 -66z" />
    <glyph glyph-name="Scircumflex" unicode="&#x15c;" horiz-adv-x="606" 
d="M308 883l-50 -48l-94 46l147 149l142 -144l-92 -49zM537 462l49 -105l-7 -297l-63 -55l-458 -4l-38 79l19 193h178l13 -90l148 4l5 125l-309 36l-45 51l5 335l39 47l367 18l129 -36l9 -190l-37 -31l-140 -8l-25 82l-133 -11l-11 -115z" />
    <glyph glyph-name="scircumflex" unicode="&#x15d;" horiz-adv-x="598" 
d="M304 669l-50 -48l-94 46l147 149l142 -144l-92 -49zM534 344l44 -87l-8 -211l-57 -42l-451 -4l-42 46l14 164l179 -1l11 -51l152 -1l4 76l-307 26l-47 38l5 239l41 35l419 13l73 -26l9 -139l-38 -28l-144 -6l-20 56l-137 -6l-10 -66z" />
    <glyph glyph-name="Scedilla" unicode="&#x15e;" horiz-adv-x="606" 
d="M258 -31l95 2l46 -30l-4 -130l-80 -101l-76 51l28 38h-39l-24 25l20 117zM537 462l49 -105l-7 -297l-63 -56l-458 -3l-38 78l19 194l178 -1l13 -89l148 4l5 125l-309 36l-45 50l5 336l39 47l367 18l129 -36l9 -190l-37 -32l-140 -7l-25 82l-133 -11l-11 -116z" />
    <glyph glyph-name="scedilla" unicode="&#x15f;" horiz-adv-x="598" 
d="M252 -30l95 3l46 -31l-4 -130l-80 -100l-76 50l28 38h-39l-24 26l20 117zM534 344l44 -87l-8 -211l-57 -42l-451 -4l-42 46l14 164l179 -1l11 -51l152 -1l4 76l-307 26l-47 38l5 239l41 35l419 13l73 -26l9 -139l-38 -28l-144 -6l-20 56l-137 -6l-10 -66z" />
    <glyph glyph-name="Scaron" unicode="&#x160;" horiz-adv-x="606" 
d="M453 983l-147 -148l-142 144l92 49l52 -46l50 48zM537 462l49 -105l-7 -297l-63 -55l-458 -4l-38 79l19 193h178l13 -90l148 4l5 125l-309 36l-45 51l5 335l39 47l367 18l129 -36l9 -190l-37 -31l-140 -8l-25 82l-133 -11l-11 -115z" />
    <glyph glyph-name="scaron" unicode="&#x161;" horiz-adv-x="598" 
d="M449 769l-147 -148l-142 144l92 49l52 -46l51 48zM534 344l44 -87l-8 -211l-57 -42l-451 -4l-42 46l14 164l179 -1l11 -51l152 -1l4 76l-307 26l-47 38l5 239l41 35l419 13l73 -26l9 -139l-38 -28l-144 -6l-20 56l-137 -6l-10 -66z" />
    <glyph glyph-name="uni0162" unicode="&#x162;" horiz-adv-x="602" 
d="M236 -31l95 2l46 -30l-4 -130l-80 -100l-76 50l28 38h-39l-24 25l20 117zM20 802h562l-9 -195l-159 -7l-22 -579l-206 -20l5 600l-170 8z" />
    <glyph glyph-name="uni0163" unicode="&#x163;" horiz-adv-x="564" 
d="M242 -31l95 2l46 -30l-4 -130l-80 -101l-76 51l28 38h-39l-24 25l20 117zM544 207v-120l-51 -81l-400 -6l-38 64l4 356l-38 10l-1 126l22 23l29 2l11 144l155 -3l24 -26l-1 -115l217 -5l25 -35l-2 -135l-237 3l-9 -247l95 -4l23 93l147 -9z" />
    <glyph glyph-name="Tcaron" unicode="&#x164;" horiz-adv-x="602" 
d="M448 983l-147 -148l-142 144l92 49l53 -46l50 48zM20 802h562l-9 -195l-159 -7l-22 -579l-206 -20l5 600l-170 7z" />
    <glyph glyph-name="tcaron" unicode="&#x165;" horiz-adv-x="694" 
d="M629 800l45 -30l-3 -130l-80 -100l-76 50l28 38h-40l-23 26l19 117l34 27zM519 243l25 -35v-121l-51 -81l-400 -6l-38 64l4 357l-38 9l-1 126l22 23l29 2l11 144l155 -2l24 -27l-1 -114l217 -6l25 -34l-2 -135l-237 3l-9 -248l95 -4l23 94z" />
    <glyph glyph-name="Tbar" unicode="&#x166;" horiz-adv-x="602" 
d="M573 606l-159 -8l-3 -84h101l4 -153l-111 -1l-13 -340l-206 -21l3 360l-105 -1l-3 156h109l1 85l-170 8l-1 193h562z" />
    <glyph glyph-name="tbar" unicode="&#x167;" horiz-adv-x="564" 
d="M544 207v-120l-51 -81l-400 -6l-38 64l2 157h-30v155h32v44l-38 9l-1 127l22 23l29 1l11 145l155 -3l24 -26l-1 -115l217 -5l25 -35l-2 -135l-237 3l-1 -31h58l-1 -152l-62 -1l-3 -63l95 -4l23 93l147 -9z" />
    <glyph glyph-name="Utilde" unicode="&#x168;" horiz-adv-x="608" 
d="M415 793l173 6l-11 -726l-36 -71l-443 -3l-66 39l-12 762h172l38 -34l12 -577l130 -9l6 576zM238 882l-81 -34l-37 5l1 113l108 47l131 -55l92 43l36 -5v-108l-116 -60z" />
    <glyph glyph-name="utilde" unicode="&#x169;" 
d="M237 668l-80 -33l-38 4l2 113l108 47l130 -55l93 43l35 -4v-108l-116 -62zM422 578l162 8l-3 -585h-133l-21 29l-19 -30l-317 3l-66 39l-5 544l162 -6l42 -53l19 -355l124 -16l17 375z" />
    <glyph glyph-name="Umacron" unicode="&#x16a;" horiz-adv-x="608" 
d="M415 794l173 5l-11 -725l-36 -71l-443 -3l-66 39l-12 763h172l38 -35l12 -577l130 -10l6 576zM477 975l-2 -135l-347 -1l1 138z" />
    <glyph glyph-name="umacron" unicode="&#x16b;" 
d="M480 757l-3 -130l-347 -1l2 133zM422 579l162 7l-3 -585h-133l-21 30l-19 -30l-317 3l-66 39l-5 544l162 -6l42 -53l19 -355l124 -16l17 374z" />
    <glyph glyph-name="Ubreve" unicode="&#x16c;" horiz-adv-x="608" 
d="M415 794l173 6l-11 -725l-36 -71l-443 -3l-66 38l-12 763h172l38 -35l12 -577l130 -8l6 575zM372 834h-132l-128 96l65 102l80 -65l91 1l83 55l71 -96z" />
    <glyph glyph-name="ubreve" unicode="&#x16d;" 
d="M367 618h-132l-128 97l66 101l80 -65l90 1l84 55l71 -96zM422 578l162 8l-3 -585l-133 -1l-21 30l-19 -30l-317 3l-66 39l-5 544l162 -6l42 -53l19 -355l124 -16l17 374z" />
    <glyph glyph-name="Uring" unicode="&#x16e;" horiz-adv-x="608" 
d="M415 794l173 5l-11 -725l-36 -71l-443 -4l-66 39l-12 763h172l38 -34l12 -578l130 -9l6 575zM372 831h-136l-23 25l10 116l29 30l105 1l46 -29l-4 -119zM287 934l-3 -40l48 -2l-2 42h-43z" />
    <glyph glyph-name="uring" unicode="&#x16f;" 
d="M422 579l162 7l-3 -584l-133 -1l-21 30l-19 -30l-317 3l-66 39l-5 544l162 -6l42 -53l19 -355l124 -16l17 374zM372 618h-137l-22 24l9 116l29 30l106 2l45 -30l-4 -119zM287 700q-2 -6 1 -18q1 -4 4 -5t13 -1q1 0 7 -0.5t8 0.5l3 1.5t1.5 2t0.5 2.5v3.5t1 3.5q1 7 1 11
q2 9 1 11q-1 5 -2 6q-5 2 -30 1q-5 0 -6 -1t-1 -7q-1 -6 -2 -10z" />
    <glyph glyph-name="Uhungarumlaut" unicode="&#x170;" horiz-adv-x="608" 
d="M415 792l173 7l-11 -726l-36 -71l-443 -3l-66 38l-12 763h172l38 -34l12 -578l130 -9l6 576zM408 835l-63 49l103 159l92 -79zM360 964l-132 -129l-64 49l104 159z" />
    <glyph glyph-name="uhungarumlaut" unicode="&#x171;" 
d="M405 622l-63 49l103 159l92 -79zM356 751l-132 -129l-63 49l103 159zM422 579l162 7l-3 -585h-133l-21 30l-19 -30l-317 3l-66 39l-5 544l162 -6l42 -53l19 -355l124 -16l17 374z" />
    <glyph glyph-name="Uogonek" unicode="&#x172;" horiz-adv-x="607" 
d="M415 795l172 6l-10 -725l-36 -72l-149 -1l-38 -91l57 -45l2 -40l-57 -82l-142 120l-7 40l43 97l-152 -1l-67 39l-11 763h171l39 -35l12 -577l130 -9l6 575z" />
    <glyph glyph-name="uogonek" unicode="&#x173;" 
d="M422 579l162 7l-3 -585h-133l-21 29l-19 -29h-30l-38 -89l58 -45l2 -40l-57 -82l-143 120l-6 39l43 98l-146 1l-66 39l-5 544l162 -6l42 -53l19 -355l124 -16l17 375z" />
    <glyph glyph-name="Wcircumflex" unicode="&#x174;" horiz-adv-x="728" 
d="M366 884l-50 -48l-94 46l147 149l142 -145l-92 -49zM496 797l212 4l-24 -754l-38 -47l-184 1l-99 180l-96 -181l-195 2l-35 49l-1 6l-16 744l211 -5l27 -463l106 176l109 -170z" />
    <glyph glyph-name="wcircumflex" unicode="&#x175;" horiz-adv-x="716" 
d="M359 668l-50 -48l-94 46l147 149l142 -144l-92 -49zM489 580l207 5l-26 -538l-38 -47l-160 2l-112 143l-109 -145l-179 2l-36 49l-16 534l207 -5l21 -303l109 138l108 -140z" />
    <glyph glyph-name="Ycircumflex" unicode="&#x176;" horiz-adv-x="603" 
d="M580 740l3 -67l-282 -678l-184 40l-8 44l96 286l-185 405l197 36l101 -192l76 193zM311 894l-50 -48l-94 46l147 149l142 -144l-92 -49z" />
    <glyph glyph-name="ycircumflex" unicode="&#x177;" horiz-adv-x="600" 
d="M306 672l-51 -48l-94 47l147 148l142 -144l-92 -49zM414 580l166 8l-7 -787l-64 -55l-436 9l-49 77l6 100l22 37l162 3l19 -66l140 10l-3 100l-276 -15l-57 57l-17 530l170 -2l35 -27l6 -378l139 7l7 353z" />
    <glyph glyph-name="Ydieresis" unicode="&#x178;" 
d="M580 741l4 -68l-282 -678l-185 40l-7 44l96 286l-186 405l198 36l101 -192l76 193zM495 843h-137l-23 25l10 116l29 29l106 2l45 -30l-4 -119zM277 843h-141l-24 25l20 117l34 28l96 2l45 -30l-4 -119z" />
    <glyph glyph-name="Zacute" unicode="&#x179;" horiz-adv-x="587" 
d="M446 966l-133 -129l-63 49l103 159zM284 203l280 -10l3 -193l-508 6l-38 27l-1 180l273 386l-265 3l-3 198l529 -9l13 -198z" />
    <glyph glyph-name="zacute" unicode="&#x17a;" horiz-adv-x="586" 
d="M446 753l-132 -129l-63 49l103 159zM565 148l1 -147l-515 5l-27 31l-4 158l252 199l-219 9l-28 21l1 162l535 -15l-1 -201l-248 -185l209 -2z" />
    <glyph glyph-name="Zdotaccent" unicode="&#x17b;" horiz-adv-x="587" 
d="M358 833h-137l-22 24l9 116l29 30l106 2l45 -30l-4 -119zM284 203l280 -10l3 -192l-508 5l-38 28l-1 179l273 386l-265 3l-3 198l529 -9l13 -198z" />
    <glyph glyph-name="zdotaccent" unicode="&#x17c;" horiz-adv-x="586" 
d="M358 619h-137l-23 24l10 116l29 30l106 2l45 -30l-4 -119zM565 147l1 -146l-515 4l-27 31l-4 158l252 199l-219 9l-28 21l1 162l535 -15l-1 -201l-248 -185l209 -1z" />
    <glyph glyph-name="Zcaron" unicode="&#x17d;" horiz-adv-x="587" 
d="M445 983l-147 -148l-142 144l92 49l53 -46l50 48zM284 202l280 -10l3 -192l-508 5l-38 27l-1 180l273 386l-265 3l-3 198l529 -9l13 -198z" />
    <glyph glyph-name="zcaron" unicode="&#x17e;" horiz-adv-x="586" 
d="M443 770l-148 -148l-141 144l92 49l52 -46l50 48zM565 147l1 -146l-515 4l-27 31l-4 158l252 199l-219 9l-28 21l1 162l535 -15l-1 -201l-248 -185l209 -2z" />
    <glyph glyph-name="longs" unicode="&#x17f;" horiz-adv-x="518" 
d="M437 801l61 -57l-3 -86l-19 -42l-158 3l-7 36l-93 -6l5 -640l-199 -9l-4 732l53 54z" />
    <glyph glyph-name="Aringacute" unicode="&#x1fa;" horiz-adv-x="622" 
d="M486 1158l-133 -129l-63 49l104 159zM587 711l15 -707l-208 -4l-5 246l-156 -4l-12 -237l-201 -5l31 735l39 47l436 18zM241 411l145 -10l-4 199l-132 -11zM390 832h-136l-23 25l10 116l29 30l105 2l46 -31l-4 -118zM305 935l-3 -40l48 -2l-2 42h-43z" />
    <glyph glyph-name="aringacute" unicode="&#x1fb;" horiz-adv-x="612" 
d="M478 942l-132 -129l-63 50l103 158zM585 547l7 -546l-137 -1l-21 34l-23 -33l-316 2l-75 55l18 264l58 39l280 3l3 68l-142 9l-17 -40l-183 13l-10 74l51 91l441 6zM239 162l144 -6l-1 92l-149 -2zM382 617h-136l-23 24l10 116l29 30l105 2l46 -30l-4 -119zM298 699
q-2 -6 0 -18q1 -4 4 -5t14 -1q1 0 7 -0.5t7 0.5l3 1.5t1.5 2t1 2.5t0.5 3.5v3.5q1 7 1 11q2 9 2 11q-1 5 -2 6q-5 2 -30 1q-5 0 -6 -1t-2 -7v0q0 -6 -1 -10z" />
    <glyph glyph-name="AEacute" unicode="&#x1fc;" horiz-adv-x="887" 
d="M616 962l-133 -129l-63 50l103 159zM863 177l4 -179l-473 2l-5 245l-156 -4l-12 -237l-201 -4l31 734l39 47l426 18l342 -16l-3 -183l-263 4l-1 -112l169 -6v-166l-166 7l-1 -135zM241 410l145 -10l-4 199l-132 -11z" />
    <glyph glyph-name="aeacute" unicode="&#x1fd;" horiz-adv-x="968" 
d="M620 749l-133 -129l-63 49l103 159zM748 180l183 -13l10 -70l-42 -93l-388 -4l-20 27l-19 -27l-378 4l-74 55l18 263l58 40l280 2l2 68l-141 10l-17 -40l-184 12l-9 75l51 91l390 6l22 -31l20 31l363 -9l75 -51l-18 -275l-58 -40l-280 8l-2 -67l141 -9zM239 163l144 -6
l-2 92l-148 -2zM585 428l2 -94l148 -13l-6 101z" />
    <glyph glyph-name="Oslashacute" unicode="&#x1fe;" horiz-adv-x="606" 
d="M471 849l135 -75l-25 -45l-7 -653l-36 -71l-371 -3l-30 -52l-137 79l23 40l-5 681l31 50l394 2zM369 163l1 460l-143 12l7 -463zM457 965l-133 -129l-63 50l103 159z" />
    <glyph glyph-name="oslashacute" unicode="&#x1ff;" horiz-adv-x="610" 
d="M462 751l-132 -129l-63 50l103 159zM488 624l122 -97l-27 -33l-4 -420l-39 -71l-368 -3l-45 -55l-127 98l24 29l-4 445l39 68l393 -5zM369 148l3 272l-140 6l4 -267z" />
    <glyph glyph-name="Wgrave" unicode="&#x1e80;" horiz-adv-x="728" 
d="M376 886l-62 -49l-132 129l92 79zM496 796l212 5l-24 -754l-38 -47l-184 1l-98 180l-96 -181l-196 2l-36 49v6l-16 744l212 -5l26 -463l106 176l110 -170z" />
    <glyph glyph-name="wgrave" unicode="&#x1e81;" horiz-adv-x="716" 
d="M375 670l-63 -50l-133 129l92 80zM489 580l207 5l-26 -539l-38 -46l-160 2l-112 142l-109 -145l-179 2l-36 49l-16 535l207 -6l21 -303l109 138l108 -139z" />
    <glyph glyph-name="Wacute" unicode="&#x1e82;" horiz-adv-x="728" 
d="M541 966l-132 -129l-63 49l103 159zM496 796l212 5l-24 -754l-38 -47l-184 1l-99 180l-96 -181l-195 2l-35 49l-1 6l-16 744l211 -5l27 -463l106 176l109 -170z" />
    <glyph glyph-name="wacute" unicode="&#x1e83;" horiz-adv-x="716" 
d="M527 749l-133 -129l-63 50l103 159zM489 580l207 5l-26 -539l-38 -46l-160 2l-112 142l-109 -145l-179 2l-36 49l-16 535l207 -6l21 -303l109 138l108 -139z" />
    <glyph glyph-name="Wdieresis" unicode="&#x1e84;" horiz-adv-x="728" 
d="M545 832h-137l-23 25l10 116l29 30l106 2l45 -31l-4 -118zM327 832h-141l-24 26l20 117l34 28l96 2l45 -31l-4 -118zM496 797l212 4l-24 -754l-38 -47l-184 1l-99 180l-96 -181l-195 2l-35 49l-1 6l-16 744l211 -5l27 -463l106 176l109 -170z" />
    <glyph glyph-name="wdieresis" unicode="&#x1e85;" horiz-adv-x="716" 
d="M537 617h-136l-23 24l10 116l29 30l105 2l46 -30l-4 -119zM319 617h-140l-24 25l20 117l33 28l96 2l46 -30l-4 -119zM489 580l207 5l-26 -538l-38 -47l-160 2l-112 143l-109 -145l-179 2l-36 49l-16 534l207 -5l21 -303l109 138l108 -139z" />
    <glyph glyph-name="uni1E86" unicode="&#x1e86;" horiz-adv-x="728" 
d="M431 832h-136l-23 25l10 116l29 30l105 2l46 -30l-4 -119zM496 797l212 4l-24 -754l-38 -47l-184 1l-99 180l-96 -181l-195 2l-35 49l-1 6l-16 744l211 -5l27 -463l106 176l109 -170z" />
    <glyph glyph-name="uni1E87" unicode="&#x1e87;" horiz-adv-x="716" 
d="M428 617h-137l-23 24l10 116l29 30l106 2l45 -30l-4 -119zM489 580l207 5l-26 -538l-38 -47l-160 2l-112 143l-109 -145l-179 2l-36 49l-16 534l207 -5l21 -303l109 138l108 -140z" />
    <glyph glyph-name="endash" unicode="&#x2013;" horiz-adv-x="664" 
d="M45 428l579 -7v-152l-584 4z" />
    <glyph glyph-name="emdash" unicode="&#x2014;" horiz-adv-x="773" 
d="M47 428l686 -7v-152l-693 4z" />
    <glyph glyph-name="quoteleft" unicode="&#x2018;" horiz-adv-x="260" 
d="M71 503l-51 34l5 150l91 113l83 -55l-34 -46h49l26 -27l-23 -136l-37 -31z" />
    <glyph glyph-name="quoteright" unicode="&#x2019;" horiz-adv-x="260" 
d="M189 799l51 -33l-5 -151l-91 -113l-83 55l34 46h-49l-26 27l23 136l37 31z" />
    <glyph glyph-name="quotedblleft" unicode="&#x201c;" horiz-adv-x="500" 
d="M420 506l-109 -2l-50 33l4 151l91 113l83 -55l-34 -46h50l25 -27l-22 -136zM71 504l-51 33l5 151l90 113l84 -55l-34 -46h49l25 -27l-22 -136l-37 -31z" />
    <glyph glyph-name="quotedblright" unicode="&#x201d;" horiz-adv-x="500" 
d="M80 798l109 2l50 -33l-4 -151l-91 -113l-83 55l34 46h-50l-25 27l22 136zM429 800l51 -33l-5 -151l-90 -113l-84 55l34 46h-49l-25 27l22 136l37 31z" />
    <glyph glyph-name="dagger" unicode="&#x2020;" horiz-adv-x="452" 
d="M305 586l127 -2v-153l-128 2l-2 -341h-156l3 342l-129 2l3 155l127 -2l1 123l155 -5z" />
    <glyph glyph-name="daggerdbl" unicode="&#x2021;" horiz-adv-x="452" 
d="M432 452l-128 2v-105l128 -3v-152l-129 1l-1 -103h-156l1 105l-127 1l3 155l125 -2l1 104l-129 2l3 155l127 -2l1 102l155 -5l-1 -100l127 -2v-153z" />
    <glyph glyph-name="perthousand" unicode="&#x2030;" horiz-adv-x="1074" 
d="M686 693l1 -48l-469 -645l-148 78l-10 46l466 677zM289 490l-227 -3l-39 23l-3 250l24 40l241 -5l30 -38l-3 -230zM198 691l-61 5l1 -106l59 -5zM467 312l241 -5l30 -38l-3 -230l-23 -37l-227 -3l-39 23l-3 250zM620 97l1 106l-61 5l2 -106zM1024 307l30 -38l-2 -230
l-24 -37l-227 -3l-39 23l-3 250l24 40zM936 97l1 106l-61 5l2 -106z" />
    <glyph glyph-name="uni2070" unicode="&#x2070;" horiz-adv-x="314" 
d="M274 795l30 -38l-2 -230l-24 -38l-226 -3l-40 23l-2 251l23 40zM188 691l-61 5l1 -107l58 -4z" />
    <glyph glyph-name="uni2074" unicode="&#x2074;" horiz-adv-x="322" 
d="M312 698l-1 -101l-21 1v-102l-113 -7l-2 111l-146 3l-19 24v168l116 5v-105l47 1l-2 98l119 6v-103z" />
    <glyph glyph-name="uni2075" unicode="&#x2075;" horiz-adv-x="314" 
d="M280 676l24 -42l-1 -117l-30 -28l-248 -2l-15 40l8 69l102 -1l6 -24l59 1l1 31l-151 13l-24 25l2 156l283 3l-3 -94l-167 -2l-1 -18z" />
    <glyph glyph-name="uni2076" unicode="&#x2076;" horiz-adv-x="310" 
d="M278 673l22 -47v-109l-30 -27l-242 -3l-18 39v242l21 25l191 7l70 -14l1 -76l-21 -18l-78 -3l-7 19l-61 -3l-1 -22zM126 606v-34l58 1l1 28z" />
    <glyph glyph-name="uni2077" unicode="&#x2077;" horiz-adv-x="292" 
d="M274 800l8 -67l-129 -245l-96 20l-11 28l93 169h-125l-4 92z" />
    <glyph glyph-name="uni2078" unicode="&#x2078;" horiz-adv-x="312" 
d="M302 771l-1 -96l-17 -26l17 -29l-1 -98l-25 -34l-230 1l-31 34l-3 101l16 26l-16 22l-1 94l28 34l243 -1zM126 720l1 -38l59 1l-2 37h-58zM185 568l-1 37l-57 -1l-1 -38z" />
    <glyph glyph-name="uni2079" unicode="&#x2079;" horiz-adv-x="310" 
d="M282 800l18 -39v-244l-21 -26l-223 -4l-38 29l-1 61l21 18l83 3l7 -19l56 4l1 21l-153 10l-22 48v108l30 28zM184 682v34l-61 -1l-1 -28z" />
    <glyph glyph-name="uni2080" unicode="&#x2080;" horiz-adv-x="314" 
d="M274 309l30 -38l-2 -230l-24 -38l-226 -3l-40 23l-2 251l23 40zM188 205l-61 5l1 -107l58 -4z" />
    <glyph glyph-name="uni2081" unicode="&#x2081;" horiz-adv-x="202" 
d="M81 306l111 5l-7 -301l-114 -10l4 178l-27 -18l-38 98z" />
    <glyph glyph-name="uni2082" unicode="&#x2082;" horiz-adv-x="318" 
d="M305 96l3 -94l-275 -2l-21 22l-2 80l174 109l-2 6l-49 3l-11 -29l-87 3l-24 17l5 87l82 14l179 -6l24 -24l2 -117l-128 -70z" />
    <glyph glyph-name="uni2083" unicode="&#x2083;" horiz-adv-x="312" 
d="M302 286l-1 -103l-15 -22l15 -23l-1 -106l-17 -32l-251 1l-18 35v48l18 22h98l5 -23l47 2l1 37l-59 5l1 62l56 1l1 37l-48 3l-5 -25h-113l-6 82l29 27l246 -1z" />
    <glyph glyph-name="uni2084" unicode="&#x2084;" horiz-adv-x="322" 
d="M312 209l-1 -101l-21 1v-102l-113 -7l-2 111l-146 3l-19 24v168l116 5v-105l47 1l-2 98l119 6v-103z" />
    <glyph glyph-name="uni2085" unicode="&#x2085;" horiz-adv-x="314" 
d="M280 189l24 -42l-1 -117l-30 -28l-248 -2l-15 40l8 69l102 -1l6 -24l59 1l1 31l-151 13l-24 25l2 156l283 3l-3 -94l-167 -2l-1 -18z" />
    <glyph glyph-name="uni2086" unicode="&#x2086;" horiz-adv-x="310" 
d="M278 186l22 -47v-109l-30 -27l-242 -3l-18 39v242l21 25l191 7l70 -14l1 -76l-21 -18l-78 -3l-7 19l-61 -3l-1 -22zM126 119v-34l58 1l1 28z" />
    <glyph glyph-name="uni2087" unicode="&#x2087;" horiz-adv-x="292" 
d="M274 310l8 -67l-129 -245l-96 20l-11 28l93 169h-125l-4 92z" />
    <glyph glyph-name="uni2088" unicode="&#x2088;" horiz-adv-x="312" 
d="M302 283l-1 -96l-17 -26l17 -29l-1 -98l-25 -34l-230 1l-31 34l-3 101l16 26l-16 22l-1 94l28 34l243 -1zM126 232l1 -38l59 1l-2 37h-58zM185 80l-1 37l-57 -1l-1 -38z" />
    <glyph glyph-name="uni2089" unicode="&#x2089;" horiz-adv-x="310" 
d="M282 313l18 -39v-244l-21 -26l-223 -4l-38 29l-1 61l21 18l83 3l7 -19l56 4l1 21l-153 10l-22 48v108l30 28zM184 195v34l-61 -1l-1 -28z" />
    <glyph glyph-name="Euro" unicode="&#x20ac;" horiz-adv-x="642" 
d="M422 247l185 -13l5 -160l-37 -72l-451 -3l-67 35l-1 190l-36 1l3 155l32 -1v42h-35l3 156l31 -1l-1 158l29 66l480 -6l60 -53l-13 -217h-190l-17 103l-140 6l1 -62l101 -2v-152l-98 1l1 -43l97 -2v-153l-94 1l1 -52l134 -9z" />
    <glyph glyph-name="uni2121" unicode="&#x2121;" horiz-adv-x="494" 
d="M454 368l-115 1l-16 -37l128 -3v-152l-196 2l-47 -105l-138 72l16 35h-46l7 156l108 -2l16 36l-128 1l6 156l191 -4l45 100l140 -62l-19 -41l48 -1v-152z" />
    <glyph glyph-name="trademark" unicode="&#x2122;" horiz-adv-x="576" 
d="M20 698v102h237l-4 -103l-58 -3l-8 -197l-101 -10l1 207zM552 799l4 -311l-101 2l-6 165l-35 -46l-35 47l-6 -165l-102 -4l4 314l95 -1l43 -54l41 55z" />
    <glyph glyph-name="uniFB00" unicode="&#xfb00;" horiz-adv-x="844" 
d="M763 801l61 -58l-3 -86l-19 -42l-158 4l-7 35l-93 -6l4 -66l165 -5l3 -138l-30 -23l-138 -1l1 -407l-199 -9l-1 417l-87 -1l1 -407l-199 -9l-1 427h-42l-1 126l21 30l27 1l2 157l43 45l364 16l13 -12zM355 636l-4 18l-93 -6l4 -66l92 -3z" />
    <glyph glyph-name="uniFB01" unicode="&#xfb01;" horiz-adv-x="586" 
d="M370 579h196l-18 -569l-203 -10l4 416l-87 -1l1 -407l-199 -9l-1 427h-42l-1 126l20 30l28 1l2 157l42 45l365 16l61 -58l-3 -86l-19 -42l-158 4l-7 35l-93 -6l4 -66z" />
    <glyph glyph-name="uniFB02" unicode="&#xfb02;" horiz-adv-x="710" 
d="M475 800h215l-17 -782l-209 -18l4 614l-6 2l-104 2l-7 36l-93 -6l4 -66l165 -5l3 -138l-30 -23l-138 -1l1 -407l-199 -9l-1 427h-42l-1 126l20 30l28 1l2 157l42 45z" />
    <glyph glyph-name="uniFB03" unicode="&#xfb03;" horiz-adv-x="872" 
d="M656 579h196l-18 -569l-203 -10l4 416l-87 -1l1 -407l-199 -9l-1 417l-87 -1l1 -407l-199 -9l-1 427h-42l-1 126l20 30l28 1l2 157l42 45l365 16l12 -12l274 12l61 -58l-3 -86l-19 -42l-158 4l-7 35l-93 -6l4 -66zM355 636l-4 18l-93 -6l4 -66l92 -3z" />
    <glyph glyph-name="uniFB04" unicode="&#xfb04;" horiz-adv-x="997" 
d="M762 800h215l-18 -782l-209 -18l5 614l-6 2l-105 3l-7 35l-92 -6l3 -66l165 -5l4 -138l-31 -23l-138 -1l1 -407l-198 -9l-2 417l-87 -1l1 -407l-198 -9l-2 427h-41l-2 126l21 30l28 1l1 157l43 45l365 16l12 -12zM355 636l-4 18l-92 -6l3 -66l93 -3v57z" />
    <glyph glyph-name="uniFB05" unicode="&#xfb05;" horiz-adv-x="997" 
d="M762 800h215l-18 -782l-209 -18l5 614l-6 2l-105 3l-7 35l-92 -6l3 -66l165 -5l4 -138l-31 -23l-138 -1l1 -407l-198 -9l-2 417l-87 -1l1 -407l-198 -9l-2 427h-41l-2 126l21 30l28 1l1 157l43 45l365 16l12 -12zM355 636l-4 18l-92 -6l3 -66l93 -3v57z" />
    </font>
</defs>
</svg>
